<svg xmlns="http://www.w3.org/2000/svg" width="571" height="530" viewBox="0 0 571 530"><style>
@keyframes a0_t { 0% { transform: translate(146px,216px); } 40.909% { transform: translate(111.5px,238.8px); animation-timing-function: cubic-bezier(0,0,1,1); } 61.364% { transform: translate(111.5px,209.7px); animation-timing-function: cubic-bezier(0,0,1,1); } 90.909% { transform: translate(146px,216px); } 100% { transform: translate(146px,216px); } }
@keyframes a1_t { 0% { transform: translate(1200px,500px) rotate(21deg) translate(-88px,-92px); } 45.455% { transform: translate(1160px,460px) rotate(21deg) translate(-88px,-92px); } 90.909% { transform: translate(1200px,500px) rotate(21deg) translate(-88px,-92px); } 100% { transform: translate(1200px,500px) rotate(21deg) translate(-88px,-92px); } }
@keyframes a2_o { 0% { opacity: 0; } 31.818% { opacity: 0; } 34.091% { opacity: 1; } 40.909% { opacity: 0; } 45.455% { opacity: 1; } 65.909% { opacity: 1; } 68.182% { opacity: 0; } 100% { opacity: 0; } }
@keyframes a3_o { 0% { opacity: 0; } 31.818% { opacity: 0; } 34.091% { opacity: 1; } 40.909% { opacity: 0; } 45.455% { opacity: 1; } 65.909% { opacity: 1; } 68.182% { opacity: 0; } 100% { opacity: 0; } }
@keyframes a4_o { 0% { opacity: 0; } 31.818% { opacity: 0; } 34.091% { opacity: 1; } 40.909% { opacity: 0; } 45.455% { opacity: 1; } 65.909% { opacity: 1; } 68.182% { opacity: 0; } 100% { opacity: 0; } }
@keyframes a5_o { 0% { opacity: 0; } 31.818% { opacity: 0; } 34.091% { opacity: 1; } 40.909% { opacity: 0; } 45.455% { opacity: 1; } 65.909% { opacity: 1; } 68.182% { opacity: 0; } 100% { opacity: 0; } }
@keyframes a6_o { 0% { opacity: .4; } 31.818% { opacity: .4; } 34.091% { opacity: 1; } 40.909% { opacity: 0; } 45.455% { opacity: 1; } 65.909% { opacity: 1; } 68.182% { opacity: .4; } 100% { opacity: .4; } }
@keyframes a7_o { 0% { opacity: .4; } 31.818% { opacity: .4; } 34.091% { opacity: 1; } 40.909% { opacity: 0; } 45.455% { opacity: 1; } 65.909% { opacity: 1; } 68.182% { opacity: .4; } 100% { opacity: .4; } }
@keyframes a8_o { 0% { opacity: .4; } 31.818% { opacity: .4; } 34.091% { opacity: 1; } 40.909% { opacity: 0; } 45.455% { opacity: 1; } 65.909% { opacity: 1; } 68.182% { opacity: .4; } 100% { opacity: .4; } }
@keyframes a9_t { 0% { transform: translate(84.2px,278.1px) scale(1,1) translate(-84.2px,-278.1px); } 11.364% { transform: translate(84.2px,279.1px) scale(1.1,1) translate(-84.2px,-278.1px); } 15.909% { transform: translate(84.2px,279.1px) scale(1.6,1.6) translate(-84.2px,-278.1px); } 22.727% { transform: translate(84.2px,279.1px) scale(1.1,1) translate(-84.2px,-278.1px); } 100% { transform: translate(84.2px,279.1px) scale(1.1,1) translate(-84.2px,-278.1px); } }
@keyframes a10_t { 0% { transform: translate(1228.9px,193.2px) scale(1,1) translate(-1228.9px,-193.2px); } 34.091% { transform: translate(1228.9px,193.2px) scale(1,1) translate(-1228.9px,-193.2px); } 38.636% { transform: translate(1228.9px,193.2px) scale(1.5,1.5) translate(-1228.9px,-193.2px); } 43.182% { transform: translate(1228.9px,193.2px) scale(1,1) translate(-1228.9px,-193.2px); } 100% { transform: translate(1228.9px,193.2px) scale(1,1) translate(-1228.9px,-193.2px); } }
@keyframes a11_o { 0% { opacity: 0; } 31.818% { opacity: 0; } 34.091% { opacity: 1; } 40.909% { opacity: 0; } 45.455% { opacity: 1; } 65.909% { opacity: 1; } 70.455% { opacity: 0; } 100% { opacity: 0; } }
@keyframes a12_t { 0% { transform: translate(832.5px,294.2px) rotate(18deg) scale(1,1) translate(-350.6px,-159.1px); } 6.818% { transform: translate(400px,20px) rotate(18deg) scale(.1,.1) translate(-350.6px,-159.1px); } 29.545% { transform: translate(832.5px,294.2px) rotate(18deg) scale(.9,.9) translate(-350.6px,-159.1px); } 31.818% { transform: translate(832.5px,294.2px) rotate(18deg) scale(1,1) translate(-350.6px,-159.1px); } 100% { transform: translate(832.5px,294.2px) rotate(18deg) scale(1,1) translate(-350.6px,-159.1px); } }
@keyframes a13_t { 0% { transform: translate(1070.6px,81.6px) rotate(0deg) translate(-1070.6px,-81.6px); } 22.727% { transform: translate(1070.6px,81.6px) rotate(0deg) translate(-1070.6px,-81.6px); } 45.455% { transform: translate(1067.6px,81.6px) rotate(25deg) translate(-1070.6px,-81.6px); } 100% { transform: translate(1067.6px,81.6px) rotate(25deg) translate(-1070.6px,-81.6px); } }
@keyframes a14_t { 0% { transform: translate(1067.6px,83.6px) rotate(0deg) translate(-1067.6px,-83.6px); } 22.727% { transform: translate(1067.6px,83.6px) rotate(0deg) translate(-1067.6px,-83.6px); } 45.455% { transform: translate(1071.6px,83.6px) rotate(-30deg) translate(-1067.6px,-83.6px); } 100% { transform: translate(1071.6px,83.6px) rotate(-30deg) translate(-1067.6px,-83.6px); } }
</style><title>Group 5</title><defs><filter id="filter-1" x="-11.5%" y="-11.5%" width="122.9%" height="122.9%"><feGaussianBlur stdDeviation="1" in="SourceGraphic"/></filter><filter id="filter-2" x="-8.8%" y="-8.8%" width="117.6%" height="117.6%"><feGaussianBlur stdDeviation="1" in="SourceGraphic"/></filter><filter id="filter-3" x="-14.5%" y="-14.5%" width="129.1%" height="129.1%"><feGaussianBlur stdDeviation="1" in="SourceGraphic"/></filter><filter id="filter-4" x="-7.8%" y="-7.8%" width="115.5%" height="115.5%"><feGaussianBlur stdDeviation="1" in="SourceGraphic"/></filter><filter id="filter-5" x="-11.1%" y="-11.1%" width="122.3%" height="122.3%"><feGaussianBlur stdDeviation="1" in="SourceGraphic"/></filter><filter id="filter-6" x="-11.1%" y="-11.1%" width="122.3%" height="122.3%"><feGaussianBlur stdDeviation="1" in="SourceGraphic"/></filter><filter id="filter-7" x="-24.7%" y="-24.7%" width="149.4%" height="149.4%"><feGaussianBlur stdDeviation="1" in="SourceGraphic"/></filter><filter id="filter-8" x="-24.6%" y="-24.6%" width="149.2%" height="149.2%"><feGaussianBlur stdDeviation="1" in="SourceGraphic"/></filter><linearGradient id="Gradient-0" x1="0" y1="150" x2="700" y2="150" gradientUnits="userSpaceOnUse"><stop offset="0" stop-color="#a71465"/><stop offset="1" stop-color="#2c2354"/></linearGradient><linearGradient id="Gradient-1" x1="0" y1="79.5" x2="370" y2="79.5" gradientUnits="userSpaceOnUse"><stop offset="0" stop-color="#1d1a42"/><stop offset="1" stop-color="#2c2354"/></linearGradient><linearGradient id="Gradient-2" x1="0" y1="40" x2="216" y2="40" gradientUnits="userSpaceOnUse"><stop offset="0" stop-color="#1d1a42"/><stop offset="1" stop-color="#2c2354"/></linearGradient><mask id="Mask-1" fill="#fff"><g><path d="M698.5 48.8c17.7 61.1-124 156-316.5 211.9c-192.5 55.9-362.8 51.7-380.5-9.5c-17.7-61.1 124-156 316.5-211.9c192.5-55.9 362.8-51.7 380.5 9.5"/></g></mask><mask id="Mask-2" fill="#fff"><g><path d="M369.2 25.9c9.4 32.4-65.5 82.6-167.3 112.3c-101.7 29.6-191.8 27.4-201.1-5.1c-9.4-32.4 65.5-82.6 167.3-112.3c101.7-29.6 191.8-27.4 201.1 5.1"/></g></mask><mask id="Mask-3" fill="#fff"><g><path d="M1.4 80c23.9-15.7 63.3-32.8 109.3-46.2c40.1-11.7 77.5-18.3 105.3-19.5c-6.8-18.2-58.8-19.2-117.5-2.1c-59.6 17.3-103.5 46.8-98 65.8c.2 .7 .6 1.3 .9 2"/></g></mask></defs><g fill="none" fill-rule="evenodd" transform="translate(286.1,228.3) scale(.4,.4) translate(-690.4,-552.3)"><g transform="translate(.2,.6)"><path d="M269.6 9.6c307 51.6 628.8 16.9 811.8 0c183-16.8 248.2 31.6 248.2 214.2c0 182.6 15.1 186.4 48.8 331.1c33.7 144.7-380.1 293.5-464.1 172.6c-84.1-120.9-345.4 80.1-495.1 0c-61.6-33-332.7-235.2-393.8-380.7c-87.2-207.5 63.8-367.5 244.2-337.2Z" fill="#80006d"/><g fill-rule="nonzero" transform="translate(330,400) translate(-184,-184)" style="animation: 4.4s linear infinite both a0_t;"><ellipse cx="184" cy="184" fill="#ff008c" rx="184" ry="184"/><path d="M283.1 29c18.4 28.6 29 62.6 29 99.1c0 101.6-82.3 184-184 184c-36.5 0-70.5-10.6-99.1-29c32.7 51.1 89.9 84.9 155 84.9c101.6 0 184-82.4 184-184c0-65.1-33.8-122.3-84.9-155Z" fill="#e9168a"/><path d="M129.9 230.2c23.6 0 38.1-25.2 38.1-38.2c0-22.1-17.9-40-40-40c-22.1 0-40 17.9-40 40c0 22.1 18.3 38.2 41.9 38.2Z" fill="#ca2b82"/><path d="M128 160c20.7 0 37.6 15.8 39.6 36c.1-1.3 .4-2.6 .4-4c0-22.1-17.9-40-40-40c-22.1 0-40 17.9-40 40c0 1.4 .3 2.7 .4 4c2-20.2 18.9-36 39.6-36Z" fill="#a71465"/><ellipse cx="256" cy="152" fill="#ca2b82" rx="24" ry="24"/><ellipse cx="232" cy="320" fill="#ba0368" rx="24" ry="24"/><path d="M232 304c11.9 0 21.7 8.7 23.6 20c.2-1.3 .4-2.6 .4-4c0-13.2-10.8-24-24-24c-13.2 0-24 10.8-24 24c0 1.4 .2 2.7 .4 4c1.9-11.3 11.7-20 23.6-20Z" fill="#a71465"/><ellipse cx="280" cy="232" fill="#ca2b82" rx="24" ry="24"/><path d="M280 216c11.9 0 21.7 8.7 23.6 20c.2-1.3 .4-2.6 .4-4c0-13.2-10.8-24-24-24c-13.2 0-24 10.8-24 24c0 1.4 .2 2.7 .4 4c1.9-11.3 11.7-20 23.6-20Z" fill="#a71465"/><path d="M256 136c11.9 0 21.7 8.7 23.6 20c.2-1.3 .4-2.6 .4-4c0-13.3-10.8-24-24-24c-13.2 0-24 10.7-24 24c0 1.4 .2 2.7 .4 4c1.9-11.3 11.7-20 23.6-20Z" fill="#a71465"/><ellipse cx="344" cy="176" fill="#ba0368" rx="16" ry="16"/><path d="M344 168c7.4 0 13.6 5.1 15.4 12c.4-1.3 .6-2.6 .6-4c0-8.8-7.2-16-16-16c-8.8 0-16 7.2-16 16c0 1.4 .2 2.7 .6 4c1.8-6.9 8-12 15.4-12Z" fill="#a71465"/><ellipse cx="144" cy="72" fill="#ca2b82" rx="16" ry="16"/><path d="M144 64c7.4 0 13.6 5.1 15.4 12c.4-1.3 .6-2.6 .6-4c0-8.8-7.2-16-16-16c-8.8 0-16 7.2-16 16c0 1.4 .2 2.7 .6 4c1.8-6.9 8-12 15.4-12Z" fill="#a71465"/></g><g fill-rule="nonzero" transform="translate(1200,500) rotate(21) translate(-88,-92)" style="animation: 4.4s linear infinite both a1_t;"><ellipse cx="92" cy="92" fill="#baffae" rx="92" ry="92"/><path d="M141.8 14.8c9.1 14.2 14.5 31.2 14.5 49.4c0 50.6-41.1 91.7-91.8 91.7c-18.2 0-35.1-5.3-49.4-14.5c16.3 25.5 44.8 42.4 77.3 42.4c50.6 0 91.7-41.1 91.7-91.8c0-32.4-16.9-60.9-42.3-77.2Z" fill="#85ff70"/><path d="M65.4 115.1c11.8 0 19.1-12.5 19.1-19.1c0-11-9-19.9-20-19.9c-11.1 0-20 8.9-20 19.9c0 11.1 9.1 19.1 20.9 19.1Z" fill="#8de67e"/><path d="M64.2 79.6c10.4 0 18.8 7.9 19.8 18c.1-0.7 .2-1.3 .2-2c0-11-8.9-20-20-20c-11 0-20 9-20 20c0 .7 .2 1.3 .2 2c1-10.1 9.5-18 19.8-18Z" fill="#1ec900"/><ellipse cx="127.7" cy="76.2" fill="#8dd980" rx="12" ry="12"/><ellipse cx="115.9" cy="159.9" fill="#33bf1b" rx="12" ry="12"/><path d="M116 151.6c6 0 10.9 4.3 11.8 10c.1-0.7 .2-1.4 .2-2c0-6.7-5.4-12-12-12c-6.6 0-12 5.3-12 12c0 .6 .1 1.3 .2 2c1-5.7 5.9-10 11.8-10Z" fill="#19a001"/><ellipse cx="139.6" cy="115.5" fill="#40da26" rx="12" ry="12"/><path d="M139.7 107.1c5.9 0 10.8 4.4 11.8 10c.1-0.6 .2-1.3 .2-2c0-6.6-5.4-12-12-12c-6.7 0-12 5.4-12 12c0 .7 .1 1.4 .2 2c.9-5.6 5.8-10 11.8-10Z" fill="#19a001"/><path d="M127.8 67.8c5.9 0 10.8 4.3 11.8 10c.1-0.7 .2-1.3 .2-2c0-6.7-5.4-12-12-12c-6.7 0-12 5.3-12 12c0 .7 .1 1.3 .2 2c.9-5.7 5.8-10 11.8-10Z" fill="#1ec900"/><ellipse cx="171.9" cy="88.1" fill="#33bf1b" rx="8" ry="8"/><path d="M171.8 83.9c3.7 0 6.8 2.6 7.7 6c.2-0.6 .3-1.3 .3-2c0-4.4-3.6-8-8-8c-4.4 0-8 3.6-8 8c0 .7 .1 1.4 .2 2c.9-3.4 4-6 7.8-6Z" fill="#19a001"/><ellipse cx="71.4" cy="35.6" fill="#8de67e" rx="8" ry="8"/><path d="M71.3 31.5c3.7 0 6.8 2.5 7.7 6c.2-0.7 .3-1.3 .3-2c0-4.4-3.6-8-8-8c-4.4 0-8 3.6-8 8c0 .7 .1 1.3 .3 2c.9-3.5 4-6 7.7-6Z" fill="#1ec900"/></g><g fill-rule="nonzero" transform="translate(1069.3,76.9) rotate(21) translate(-59.5,-59.5)"><ellipse cx="59.5" cy="59.5" fill="#5b99ff" rx="59.5" ry="59.5"/><path d="M90.7 9.9c5.9 9.2 9.4 20.1 9.4 31.9c0 32.6-26.5 59.1-59.2 59.1c-11.7 0-22.7-3.4-31.9-9.3c10.5 16.4 28.9 27.3 49.9 27.3c32.6 0 59.1-26.5 59.1-59.2c0-20.9-10.9-39.3-27.3-49.8Z" fill="#4286f6"/><path d="M42.4 74.5c7.6 0 12.3-8 12.3-12.2c0-7-5.8-12.8-13-12.8c-7.2 0-13 5.8-13 12.8c0 7.1 6 12.2 13.7 12.2Z" fill="#3079f2"/><path d="M41.6 51.7c6.8 0 12.2 5.1 12.9 11.5c0-0.4 .1-0.9 .1-1.3c0-7-5.8-12.7-13-12.7c-7.2 0-13 5.7-13 12.7c0 .4 .1 .9 .2 1.3c.6-6.4 6.1-11.5 12.8-11.5Z" fill="#003690"/><ellipse cx="81.8" cy="49.3" fill="#2275ff" rx="8" ry="8"/><ellipse cx="74.8" cy="103.4" fill="#0759e1" rx="8" ry="8"/><path d="M74.8 98.8c4 0 7.2 2.8 7.9 6.5c0-0.5 .1-0.9 .1-1.3c0-4.3-3.6-7.7-8-7.7c-4.4 0-8 3.4-8 7.7c0 .4 .1 .8 .1 1.3c.7-3.7 3.9-6.5 7.9-6.5Z" fill="#003690"/><ellipse cx="89.6" cy="75.2" fill="#0759e1" rx="8" ry="8"/><path d="M89.3 69.7c4 0 7.3 2.8 7.9 6.4c.1-0.4 .1-0.8 .1-1.3c0-4.2-3.6-7.7-8-7.7c-4.4 0-8 3.5-8 7.7c0 .5 .1 .9 .2 1.3c.6-3.6 3.9-6.4 7.8-6.4Z" fill="#003690"/><path d="M81.5 43.8c4 0 7.2 2.8 7.9 6.4c.1-0.4 .1-0.9 .1-1.3c0-4.3-3.6-7.7-8-7.7c-4.4 0-8 3.4-8 7.7c0 .4 .1 .9 .2 1.3c.6-3.6 3.9-6.4 7.8-6.4Z" fill="#003690"/><ellipse cx="110.7" cy="57.5" fill="#0759e1" rx="5" ry="5"/><path d="M110.9 54.7c2.3 0 4.3 1.5 4.8 3.6c.1-0.4 .2-0.8 .2-1.2c0-2.7-2.2-4.8-5-4.8c-2.8 0-5 2.1-5 4.8c0 .4 .1 .8 .2 1.2c.5-2.1 2.5-3.6 4.8-3.6Z" fill="#003690"/><ellipse cx="46.2" cy="23.4" fill="#2f7dff" rx="5" ry="5"/><path d="M46.4 20.6c2.3 0 4.3 1.5 4.8 3.6c.1-0.4 .2-0.8 .2-1.2c0-2.7-2.3-4.8-5-4.8c-2.8 0-5 2.1-5 4.8c0 .4 .1 .8 .2 1.2c.5-2.1 2.5-3.6 4.8-3.6Z" fill="#003690"/></g><ellipse fill-opacity=".3" fill="#fdf4b7" rx="424.5" ry="94" opacity="0" transform="translate(781.3,1000.9) rotate(3) translate(0,0)" style="animation: 4.4s linear infinite both a2_o;"/><ellipse fill-opacity=".3" fill="#d0cec2" rx="133" ry="49.5" opacity="0" transform="translate(592.1,967.5) rotate(3)" style="animation: 4.4s linear infinite both a3_o;"/><ellipse fill-opacity=".3" fill="#d0cec2" rx="133" ry="49.5" opacity="0" transform="translate(752.1,967.5) rotate(3)" style="animation: 4.4s linear infinite both a4_o;"/><ellipse fill-opacity=".3" fill="#d0cec2" rx="133" ry="49.5" opacity="0" transform="translate(975.1,966.5) rotate(3)" style="animation: 4.4s linear infinite both a5_o;"/><path d="M1035.3 1009.6c7.9 0 14.3-2.6 19-7.8c4.7-5.2 7-13.2 7-23.8v-38.7h12.7c10.6 0 18.5-1.9 23.7-5.5c5.3-3.7 7.9-9.6 7.9-17.6c0-9.9-3.2-16.2-9.6-19.2c-6.5-2.9-15-4.3-25.7-4.3h-9v-161c0-24.2-10.5-36.2-31.6-36.2c-6.5 0-12.1 2.2-16.7 6.5c-4.7 4.4-10.6 11.4-17.8 21.1l-110.3 147.5c-3 4-5.6 7.4-7.6 10.2c-2.1 2.8-4.1 5.7-6.1 8.6c-1.9 3-3.4 5.9-4.3 8.6c-1 2.7-1.5 5.3-1.5 8c0 10.2 3.3 18.4 9.9 24.3c6.6 6 16.4 9 29.6 9h104.4v38.7c0 10.4 2.4 18.2 7.2 23.6c4.8 5.3 11.1 8 18.8 8Zm-26-116.9h-89.4l89.4-120.9v120.9Z" stroke="#ff008c" stroke-width="10" fill="#fff" fill-rule="nonzero" opacity=".4" style="animation: 4.4s linear infinite both a6_o;"/><path d="M781.1 1009.2c18.3 0 34.9-4.5 49.9-13.4c15-8.8 27.2-21.5 36.6-37.8c7.5-13.3 12.6-28.2 15.4-44.5c2.8-16.4 4.2-35.9 4.2-58.7c0-41.9-5.3-74.2-15.8-97.1c-6.1-13.2-13.6-24.3-22.4-33.2c-8.8-8.9-19-15.7-30.7-20.4c-11.6-4.6-24.6-7-38.9-7c-21.6 0-40.2 5.3-55.8 15.7c-15.6 10.5-27.5 25.7-35.7 45.7c-4.7 12.1-8.2 26.5-10.4 43.3c-2.2 16.8-3.3 35.6-3.3 56.5c0 16.3 1 31.4 3 45.3c2 13.9 5.1 26.7 9.4 38.2c8.5 21 21.1 37.5 37.8 49.5c16.7 11.9 35.6 17.9 56.7 17.9Zm-0.4-42.3c-12.4 0-22.2-4.2-29.4-12.8c-7.2-8.5-12.3-21.1-15.4-37.7c-3-16.7-4.5-38-4.5-64.1c0-38.4 3.5-66.8 10.7-85.3c7.1-18.4 19.8-27.6 38.1-27.6c12.8 0 22.8 4.1 30 12.3c7.2 8.3 12.3 20.5 15.4 36.7c3 16.1 4.6 36.9 4.6 62.3c0 26.7-1.5 48.3-4.4 64.9c-2.9 16.5-8 29.1-15.2 38c-7.2 8.9-17.2 13.3-29.9 13.3Z" stroke="#ff008c" stroke-width="12" fill="#fff" fill-rule="nonzero" opacity=".4" style="animation: 4.4s linear infinite both a7_o;"/><path d="M620.3 1009.6c7.9 0 14.3-2.6 19-7.8c4.7-5.2 7-13.2 7-23.8v-38.7h12.7c10.6 0 18.5-1.9 23.7-5.5c5.3-3.7 7.9-9.6 7.9-17.6c0-9.9-3.2-16.2-9.6-19.2c-6.5-2.9-15-4.3-25.7-4.3h-9v-161c0-24.2-10.5-36.2-31.6-36.2c-6.5 0-12.1 2.2-16.7 6.5c-4.7 4.4-10.6 11.4-17.8 21.1l-110.3 147.5c-3 4-5.6 7.4-7.6 10.2c-2.1 2.8-4.1 5.7-6.1 8.6c-1.9 3-3.4 5.9-4.3 8.6c-1 2.7-1.5 5.3-1.5 8c0 10.2 3.3 18.4 9.9 24.3c6.6 6 16.4 9 29.6 9h104.4v38.7c0 10.4 2.4 18.2 7.2 23.6c4.8 5.3 11.1 8 18.8 8Zm-26-116.9h-89.4l89.4-120.9v120.9Z" stroke="#ff008c" stroke-width="10" fill="#fff" fill-rule="nonzero" opacity=".4" style="animation: 4.4s linear infinite both a8_o;"/><path d="M1294.1 568.7c.3 .1 .5 .3 .6 .6l3.1 8.4l8.4 3.1c.5 .2 .8 .8 .6 1.3c-0.1 .2-0.3 .5-0.6 .6l-8.4 3l-3.1 8.5c-0.2 .5-0.8 .8-1.3 .6c-0.3-0.1-0.5-0.4-0.6-0.6l-3-8.5l-8.5-3c-0.5-0.2-0.8-0.8-0.6-1.3c.1-0.3 .4-0.5 .6-0.6l8.5-3.1l3-8.4c.2-0.5 .8-0.8 1.3-0.6Z" fill="#fffded" filter="url(#filter-1)"/><path d="M84.5 261.2c.3 .1 .5 .3 .6 .6l4.1 11.3l11.3 4.1c.5 .2 .8 .8 .6 1.3c-0.1 .3-0.3 .5-0.6 .6l-11.3 4.1l-4.1 11.3c-0.2 .5-0.8 .8-1.3 .6c-0.2-0.1-0.5-0.3-0.6-0.6l-4.1-11.3l-11.3-4.1c-0.5-0.2-0.8-0.8-0.6-1.3c.1-0.3 .4-0.5 .6-0.6l11.3-4.1l4.1-11.3c.2-0.5 .8-0.8 1.3-0.6Z" fill="#fffded" filter="url(#filter-2)" transform="translate(84.2,278.1) translate(-84.2,-278.1)" style="animation: 4.4s linear infinite both a9_t;"/><path d="M285.5 560.9c.3 .1 .5 .3 .6 .6l2.3 6.4l6.4 2.3c.6 .2 .8 .8 .6 1.3c-0.1 .3-0.3 .5-0.6 .6l-6.4 2.3l-2.3 6.4c-0.2 .5-0.8 .8-1.3 .6c-0.2-0.1-0.5-0.3-0.6-0.6l-2.3-6.4l-6.4-2.3c-0.5-0.2-0.8-0.8-0.6-1.3c.1-0.3 .3-0.5 .6-0.6l6.4-2.3l2.3-6.4c.2-0.5 .8-0.8 1.3-0.6Z" fill="#fffded" filter="url(#filter-3)"/><path d="M709.5 498.5c.3 .1 .5 .3 .6 .6l4.7 13l13 4.7c.5 .2 .8 .8 .6 1.3c-0.1 .2-0.3 .5-0.6 .6l-13 4.7l-4.7 13c-0.2 .5-0.8 .8-1.3 .6c-0.2-0.1-0.5-0.4-0.6-0.6l-4.7-13l-13-4.7c-0.5-0.2-0.8-0.8-0.6-1.3c.1-0.3 .4-0.5 .6-0.6l13-4.7l4.7-13c.2-0.5 .8-0.8 1.3-0.6Z" fill="#fffded" filter="url(#filter-4)"/><path d="M465.2 115.3c.3 .1 .5 .3 .6 .6l3.2 8.7l8.7 3.2c.5 .2 .8 .8 .6 1.3c-0.1 .2-0.3 .5-0.6 .6l-8.7 3.1l-3.2 8.7c-0.2 .6-0.7 .8-1.3 .6c-0.2-0.1-0.5-0.3-0.6-0.6l-3.1-8.7l-8.7-3.1c-0.6-0.2-0.8-0.8-0.6-1.3c.1-0.3 .3-0.5 .6-0.6l8.7-3.2l3.1-8.7c.2-0.5 .8-0.8 1.3-0.6Z" fill="#fffded" filter="url(#filter-5)"/><path d="M891.2 50.3c.3 .1 .5 .3 .6 .6l3.2 8.7l8.7 3.2c.5 .2 .8 .8 .6 1.3c-0.1 .2-0.3 .5-0.6 .6l-8.7 3.1l-3.2 8.7c-0.2 .6-0.7 .8-1.3 .6c-0.2-0.1-0.5-0.3-0.6-0.6l-3.1-8.7l-8.7-3.1c-0.6-0.2-0.8-0.8-0.6-1.3c.1-0.3 .3-0.5 .6-0.6l8.7-3.2l3.1-8.7c.2-0.5 .8-0.8 1.3-0.6Z" fill="#fffded" filter="url(#filter-6)"/><path d="M1229.2 187.2c.3 .1 .5 .3 .6 .6l1.2 3.3l3.3 1.2c.5 .1 .8 .7 .6 1.2c-0.1 .3-0.3 .5-0.6 .6l-3.3 1.2l-1.2 3.3c-0.2 .5-0.7 .8-1.3 .6c-0.2-0.1-0.5-0.3-0.6-0.6l-1.2-3.3l-3.2-1.2c-0.6-0.1-0.8-0.7-0.6-1.2c.1-0.3 .3-0.5 .6-0.6l3.2-1.2l1.2-3.3c.2-0.5 .8-0.8 1.3-0.6Z" fill="#fffded" filter="url(#filter-7)" transform="translate(1228.9,193.2) translate(-1228.9,-193.2)" style="animation: 4.4s linear infinite both a10_t;"/><path d="M1326 476.7c.3 .1 .5 .3 .6 .6l1.2 3.3l3.3 1.2c.5 .2 .8 .8 .6 1.3c-0.1 .2-0.3 .5-0.6 .6l-3.3 1.2l-1.2 3.3c-0.2 .5-0.8 .8-1.3 .6c-0.2-0.1-0.5-0.3-0.6-0.6l-1.2-3.3l-3.3-1.2c-0.5-0.2-0.8-0.8-0.6-1.3c.1-0.3 .3-0.5 .6-0.6l3.3-1.2l1.2-3.3c.2-0.5 .8-0.8 1.3-0.6Z" fill="#fff8b4" filter="url(#filter-8)"/><path d="M669.2 288.9c0-3 98.5 .9 295.4 11.9l238.9 712.7c.3 .8 .6 1.7 .9 2.5l1.2 3.7l-0.5-0.1c.1 1.2 .1 2.4 .1 3.6c-2.7 51.8-194.7 83.9-428.9 71.6c-234.1-12.3-421.7-64.2-419-116.1c.1-1.6 .4-3.1 .8-4.7h-0.3c.4-0.9 .8-1.7 1.2-2.6v.1c.3-0.7 .6-1.4 .9-2c206.2-450.7 309.3-677.5 309.3-680.6Z" fill-opacity=".37" fill="#fff8c4" opacity="0" style="animation: 4.4s linear infinite both a11_o;"/><g transform="translate(832.5,294.2) rotate(18) translate(-350.6,-159.1)" style="animation: 4.4s linear infinite both a12_t;"><path d="M691.2 76.3c17 58.8-119.2 150.2-304.3 204.1c-185 53.9-348.8 49.8-365.8-9.1c-17-58.9 119.2-150.3 304.3-204.2c185-53.8 348.8-49.7 365.8 9.2" fill="#35001d"/><path d="M630 71.1c14.6 18.7 27.9 38.3 40.3 58.5c24.1-24.4 35.1-47.7 29.4-67.5c-17.7-61.2-188.1-65.4-380.5-9.5c-192.5 55.9-334.2 150.9-316.5 212c5.8 20.4 28.7 34.4 63.7 42c2.1-31.8 4.6-63.7 4.9-95.6c.1-10.9 17-10.9 16.9 0c-0.3 32.8-3.2 65.7-5.4 98.6c3.5 .5 7 1 10.6 1.4c-2-14.7-4.2-29.4-6.3-44.2c-1.6-10.7 14.7-15.3 16.2-4.5c2.5 16.7 5 33.4 7.3 50.1c6.5 .4 13.1 .7 20.1 .9c-2.5-22.1-5.2-44.2-8.5-66.2c-1.6-10.7 14.7-15.3 16.3-4.5c3.5 23.5 6.3 47.1 9 70.7c9.6-0.1 19.5-0.6 29.8-1.2c-3.1-25.2-5.9-50.5-9-75.7c-1.3-10.9 15.6-10.7 16.9 0c3 24.8 5.8 49.6 8.8 74.4c56.5-4.9 121.4-17 189.2-36.7c11.9-3.5 23.7-7.1 35.3-10.9c-7.3-20.2-14.8-40.4-25.4-59.2c-5.4-9.5 9.2-18.1 14.6-8.6c11.2 19.9 18.9 41.2 26.5 62.6c11.5-4 22.7-8 33.6-12.2c-7.8-19.9-15.5-39.8-25.5-58.7c-5.1-9.7 9.5-18.2 14.6-8.6c10.4 19.7 18.3 40.6 26.5 61.3c9.4-3.8 18.6-7.6 27.5-11.5c-6.7-17.3-13.5-34.6-22.2-51.1c-5-9.7 9.5-18.2 14.6-8.6c9 17.1 16 35 22.9 52.9c5.2-2.4 10.4-4.8 15.4-7.3c-7-15.8-14.8-31.1-24.7-45.5c-6.2-9 8.4-17.4 14.5-8.5c10.2 14.7 18.1 30.4 25.3 46.6c41.8-21.2 76.3-43.6 101.2-65.4c-12.2-20.2-25.3-39.8-39.9-58.4c-6.6-8.5 5.3-20.5 12-11.9" fill="#fffffe"/><g><path d="M698.5 48.8c17.7 61.1-124 156-316.5 211.9c-192.5 55.9-362.8 51.7-380.5-9.5c-17.7-61.1 124-156 316.5-211.9c192.5-55.9 362.8-51.7 380.5 9.5" fill="url(#Gradient-0)" mask="url(#Mask-1)"/></g><g transform="translate(137.4,24.3)"><path d="M369.2 25.9c9.4 32.4-65.5 82.6-167.3 112.3c-101.7 29.6-191.8 27.3-201.1-5.1c-9.4-32.4 65.5-82.6 167.3-112.3c101.7-29.6 191.8-27.4 201.1 5.1" fill="url(#Gradient-1)" mask="url(#Mask-2)"/></g><path d="M474.4 58.5c7.7 26.7-54.1 68.1-137.9 92.5c-83.9 24.4-158.1 22.6-165.8-4.1c-7.7-26.7 54-68.2 137.9-92.6c83.8-24.4 158.1-22.5 165.8 4.2" fill="#a62268"/><path d="M462.3 52.3c-6.6 1.9-13.1 3.8-19.6 5.7v.1c6.3 21.8-43.9 55.6-112.1 75.4c-58.6 17.1-111.3 18.4-128.9 4.6c-6.4 2.3-12.8 4.5-19.2 6.7c20.1 16.5 81.8 15.5 149.9-5c78-23.4 134-63.4 129.9-87.4v-0.1" fill="#ff6bbd"/><g transform="translate(208,47.4)"><path d="M1.4 80c23.9-15.7 63.3-32.8 109.3-46.2c40.1-11.7 77.5-18.3 105.3-19.5c-6.8-18.2-58.8-19.2-117.5-2.1c-59.6 17.3-103.5 46.8-98 65.8c.2 .7 .6 1.3 .9 2" fill="url(#Gradient-2)" mask="url(#Mask-3)"/></g><path d="M291.4 146.2c-25.9 4.2-63.6 10.9-87.2-5.2c-11.5-7.9-14.6-18.7-12.5-29.7c-3.1 2.1-5.9 4.3-8.5 7c-5.6 5.9-9.8 14.2-7.5 22c3.3 10.9 16.6 14.7 28 15.9c38.3 3.9 76.8-2.5 113.4-14.9c-8.5 1.9-17.1 3.6-25.7 4.9" fill="#fffffe"/></g><g transform="translate(1070.6,81.6) rotate(-10) translate(-1070.6,-81.6)"><g stroke="#14d9ff" stroke-width="2"><path d="M1011.2 72c-13.7 2-22.1 4.8-22.1 7.8c0 6.4 36.5 11.5 81.5 11.5c45 0 81.5-5.1 81.5-11.5c0-3.1-8.8-5.9-23.1-8" transform="translate(1070.6,81.6) translate(-1070.6,-81.6)" style="animation: 4.4s linear infinite both a13_t;"/></g></g><g transform="translate(1067.6,83.6) rotate(-345) translate(-1067.6,-83.6)"><g stroke="#1adaff" stroke-width="2"><path d="M1008.2 74c-13.7 2-22.1 4.8-22.1 7.8c0 6.4 36.5 11.5 81.5 11.5c45 0 81.5-5.1 81.5-11.5c0-3.1-8.8-5.9-23.1-8" transform="translate(1067.6,83.6) translate(-1067.6,-83.6)" style="animation: 4.4s linear infinite both a14_t;"/></g></g></g></g><text x="321.8" y="466.5" fill="#7e7e7e" font-size="22" font-family="Arial" letter-spacing="0" word-spacing="0" font-weight="700" text-anchor="middle" style="line-height: 16px; white-space: pre;">wystąpił błąd :( przepraszamy</text></svg>