<?xml version="1.0" encoding="UTF-8"?>
<svg width="10px" height="9px" viewBox="0 0 10 9" version="1.1" xmlns="http://www.w3.org/2000/svg" xmlns:xlink="http://www.w3.org/1999/xlink">
    <!-- Generator: Sketch 64 (93537) - https://sketch.com -->
    <title>Combined Shape</title>
    <desc>Created with Sketch.</desc>
    <g id="Page-1" stroke="none" stroke-width="1" fill="none" fill-rule="evenodd">
        <path d="M4.32562988,4.99818025 L4.326,6.498 L10,6.49799691 L10,7.49799691 L4.326,7.498 L4.32562988,9 L3.29392623,9 L3.29392623,4.99818025 L4.32562988,4.99818025 Z M2.0292359,6.49799691 L2.0292359,7.49799691 L-2.91322522e-13,7.49799691 L-2.91322522e-13,6.49799691 L2.0292359,6.49799691 Z M6.70607377,-8.52207194e-13 L6.70607377,4.00181975 L5.67437012,4.00181975 L5.674,2.502 L2.97539771e-13,2.50200309 L2.97539771e-13,1.50200309 L5.674,1.502 L5.67437012,-8.52207194e-13 L6.70607377,-8.52207194e-13 Z M10,1.50200309 L10,2.50200309 L7.87770742,2.50200309 L7.87770742,1.50200309 L10,1.50200309 Z" id="Combined-Shape" fill="#000000" fill-rule="nonzero"></path>
    </g>
</svg>