<?xml version="1.0" encoding="UTF-8"?>
<svg width="137px" height="100px" viewBox="0 0 137 100" version="1.1" xmlns="http://www.w3.org/2000/svg" xmlns:xlink="http://www.w3.org/1999/xlink">
    <!-- Generator: Sketch 64 (93537) - https://sketch.com -->
    <title>dom-tumbnail</title>
    <desc>Created with Sketch.</desc>
    <g id="Improvement" stroke="none" stroke-width="1" fill="none" fill-rule="evenodd">
        <g id="Artboard" transform="translate(-312.000000, -54.000000)">
            <g id="dom-tumbnail" transform="translate(313.000000, 55.000000)">
                <rect id="Rectangle" stroke="#979797" fill="#272727" x="0" y="0" width="135" height="98" rx="5"></rect>
                <g id="home-office" transform="translate(30.000000, 22.000000)" fill-rule="nonzero">
                    <path d="M37.8359977,7.81199953 C37.0753598,7.35500813 36.1246358,7.35500813 35.3639979,7.81199953 L6.59999961,25.1279985 L6.59999961,65.6999961 L66.5999996,65.6999961 L66.5999996,25.1279985 L37.8359977,7.81199953 Z M31.7999981,15.2999991 L41.3999975,15.2999991 L41.3999975,24.8999985 L31.7999981,24.8999985 L31.7999981,15.2999991 Z M52.1999969,60.8999964 L42.5999975,60.8999964 L42.5999975,56.0999967 L52.1999969,56.0999967 L52.1999969,60.8999964 Z M61.7999963,60.8999964 L56.9999966,60.8999964 L56.9999966,51.2999969 L37.7999977,51.2999969 L37.7999977,60.8999964 L31.7999981,60.8999964 L31.7999981,58.4999965 C31.7960443,57.1761544 30.7238404,56.1039504 29.3999993,56.0999967 L22.1999987,56.0999967 C20.8761565,56.1039504 19.8039526,57.1761544 19.7999988,58.4999965 L19.7999988,60.8999964 L11.3999993,60.8999964 L11.3999993,29.6999982 L61.7999963,29.6999982 L61.7999963,60.8999964 Z" id="Shape" fill="#BDDBFF"></path>
                    <rect id="Rectangle" fill="#BDDBFF" x="16.199999" y="36.8999978" width="19.1999989" height="14.3999991" rx="2.39999986"></rect>
                    <g id="Group" fill="#57A4FF">
                        <path d="M69.2159959,27.5039984 C69.5531916,27.5041221 69.8886433,27.455623 70.2119958,27.3599984 C71.1801462,27.0858706 71.9868171,26.4143716 72.4319957,25.5119985 L72.6839957,25.0199985 C73.5086668,23.3374516 72.9157041,21.3036934 71.3159957,20.3279988 L38.4479977,0.611999964 C37.3109028,-0.071880099 35.8890928,-0.071880099 34.7519979,0.611999964 L1.88399989,20.3279988 C0.284291582,21.3036934 -0.308671173,23.3374516 0.515999969,25.0199985 L0.767999954,25.5119985 C1.21317853,26.4143716 2.01984947,27.0858706 2.98799982,27.3599984 C3.7862378,27.5940779 4.64192005,27.5344781 5.39999968,27.1919984 L5.39999968,64.4999962 L4.19999975,64.4999962 C2.21177477,64.4999962 0.599999964,66.111771 0.599999964,68.0999959 C0.599999964,70.0882209 2.21177477,71.6999957 4.19999975,71.6999957 L68.9999959,71.6999957 C70.9882209,71.6999957 72.5999957,70.0882209 72.5999957,68.0999959 C72.5999957,66.111771 70.9882209,64.4999962 68.9999959,64.4999962 L67.799996,64.4999962 L67.799996,27.1799984 C68.2454302,27.3820477 68.72702,27.4922419 69.2159959,27.5039984 Z M68.9999998,66.899996 C69.6627375,66.899996 70.1999958,67.4372543 70.1999958,68.0999959 C70.1999958,68.7627376 69.6627375,69.2999959 68.9999998,69.2999959 L4.19999975,69.2999959 C3.53725809,69.2999959 2.99999982,68.7627376 2.99999982,68.0999959 C2.99999982,67.4372543 3.53725809,66.899996 4.19999975,66.899996 L68.9999998,66.899996 Z M7.79999954,64.4999962 L7.79999954,25.8119985 L35.9759979,8.84399947 C36.3607559,8.61599379 36.8392398,8.61599379 37.2239978,8.84399947 L65.3999961,25.8119985 L65.3999961,64.4999962 L7.79999954,64.4999962 Z M38.4599977,6.7919996 C37.3154008,6.1041051 35.8845949,6.1041051 34.7399979,6.7919996 L4.60799973,24.9359985 C4.31815034,25.106409 3.97087791,25.149818 3.64799978,25.0559985 C3.32790559,24.9656903 3.06158712,24.7430306 2.91599983,24.4439985 L2.66399984,23.9519986 C2.39235228,23.3884289 2.58893909,22.7107217 3.11999981,22.3799987 L35.9759979,2.67599984 C36.3525066,2.4383439 36.8309458,2.43369886 37.2119978,2.66399984 L70.0799958,22.3799987 C70.6110565,22.7107217 70.8076434,23.3884289 70.5359958,23.9519986 L70.2839958,24.4439985 C70.1384085,24.7430306 69.87209,24.9656903 69.5519959,25.0559985 C69.2290609,25.1490972 68.8820778,25.1057243 68.5919959,24.9359985 L38.4599977,6.7919996 Z" id="Shape"></path>
                        <path d="M61.7999963,28.4999983 L11.3999993,28.4999983 C10.7372577,28.4999983 10.1999994,29.0372566 10.1999994,29.6999982 L10.1999994,60.8999964 C10.1999994,61.562738 10.7372577,62.0999963 11.3999993,62.0999963 L61.7999963,62.0999963 C62.462738,62.0999963 62.9999962,61.562738 62.9999962,60.8999964 L62.9999962,29.6999982 C62.9999962,29.0372566 62.462738,28.4999983 61.7999963,28.4999983 Z M30.5999982,59.6999964 L20.9999987,59.6999964 L20.9999987,58.4999965 C20.9999987,57.8372549 21.537257,57.2999966 22.1999987,57.2999966 L29.3999982,57.2999966 C30.0627399,57.2999966 30.5999982,57.8372549 30.5999982,58.4999965 L30.5999982,59.6999964 Z M24.5999985,52.4999969 L26.9999984,52.4999969 L26.9999984,54.8999967 L24.5999985,54.8999967 L24.5999985,52.4999969 Z M18.5999989,50.0999977 C17.9372572,50.0999977 17.399999,49.5627387 17.399999,48.8999971 L17.399999,39.2999977 C17.399999,38.637256 17.9372572,38.0999977 18.5999989,38.0999977 L32.999998,38.0999977 C33.6627397,38.0999977 34.199998,38.637256 34.199998,39.2999977 L34.199998,48.8999971 C34.199998,49.5627387 33.6627397,50.0999977 32.999998,50.0999977 L18.5999989,50.0999977 Z M50.999997,59.6999964 L43.7999974,59.6999964 L43.7999974,57.2999966 L50.999997,57.2999966 L50.999997,59.6999964 Z M55.7999967,59.6999964 L53.3999968,59.6999964 L53.3999968,56.0999967 C53.3999968,55.437255 52.8627385,54.8999967 52.1999969,54.8999967 L42.5999975,54.8999967 C41.9372558,54.8999967 41.3999975,55.437255 41.3999975,56.0999967 L41.3999975,59.6999964 L38.9999977,59.6999964 L38.9999977,52.4999969 L55.7999967,52.4999969 L55.7999967,59.6999964 Z M42.5999975,50.099997 L42.5999975,44.0999974 C42.5999975,43.4372557 43.1372557,42.8999974 43.7999974,42.8999974 L50.999997,42.8999974 C51.6627386,42.8999974 52.1999969,43.4372557 52.1999969,44.0999974 L52.1999969,50.099997 L42.5999975,50.099997 Z M60.5999992,59.6999964 L58.1999965,59.6999964 L58.1999965,51.2999969 C58.1999965,50.6372553 57.6627383,50.099997 56.9999966,50.099997 L54.5999992,50.099997 L54.5999992,44.0999974 C54.5940661,42.1142341 52.9857602,40.5059282 50.999997,40.4999976 L43.7999974,40.4999976 C41.8142341,40.5059282 40.2059282,42.1142341 40.1999976,44.0999974 L40.1999976,50.099997 L37.7999977,50.099997 C37.1372561,50.099997 36.5999992,50.6372553 36.5999992,51.2999969 L36.5999992,59.6999964 L32.999998,59.6999964 L32.999998,58.4999965 C32.9940674,56.5142333 31.3857615,54.9059274 29.3999982,54.8999982 L29.3999982,52.4999969 L32.999998,52.4999969 C34.9857613,52.4940662 36.5940672,50.8857603 36.5999992,48.8999982 L36.5999992,39.2999977 C36.5940672,37.3142344 34.9857613,35.7059285 32.999998,35.6999979 L18.5999992,35.6999979 C16.6142357,35.7059285 15.0059297,37.3142344 14.9999991,39.2999977 L14.9999991,48.8999982 C15.0059297,50.8857603 16.6142357,52.4940662 18.5999992,52.4999969 L22.1999987,52.4999969 L22.1999987,54.8999982 C20.2142354,54.9059274 18.6059295,56.5142333 18.5999992,58.4999965 L18.5999992,59.6999964 L12.5999992,59.6999964 L12.5999992,30.8999982 L60.5999992,30.8999982 L60.5999992,59.6999964 Z" id="Shape"></path>
                        <path d="M31.7999981,26.0999992 L41.3999975,26.0999992 C42.0627392,26.0999992 42.5999982,25.5627402 42.5999982,24.8999985 L42.5999982,15.2999991 C42.5999982,14.6372574 42.0627392,14.0999992 41.3999975,14.0999992 L31.7999981,14.0999992 C31.1372564,14.0999992 30.5999982,14.6372574 30.5999982,15.2999991 L30.5999982,24.8999985 C30.5999982,25.5627402 31.1372564,26.0999992 31.7999981,26.0999992 Z M32.999998,21.2999987 L35.3999979,21.2999987 L35.3999979,23.6999986 L32.999998,23.6999986 L32.999998,21.2999987 Z M37.7999977,23.6999986 L37.7999977,21.2999987 L40.1999976,21.2999987 L40.1999976,23.6999986 L37.7999977,23.6999986 Z M40.1999976,18.8999989 L37.7999977,18.8999989 L37.7999977,16.499999 L40.1999976,16.499999 L40.1999976,18.8999989 Z M35.3999979,16.499999 L35.3999979,18.8999989 L32.999998,18.8999989 L32.999998,16.499999 L35.3999979,16.499999 Z" id="Shape"></path>
                        <polygon id="Path" points="44.9999973 45.2999973 49.799997 45.2999973 49.799997 47.6999972 44.9999973 47.6999972"></polygon>
                    </g>
                </g>
            </g>
        </g>
    </g>
</svg>