<?xml version="1.0" encoding="UTF-8"?>
<svg width="47px" height="11px" viewBox="0 0 47 11" version="1.1" xmlns="http://www.w3.org/2000/svg" xmlns:xlink="http://www.w3.org/1999/xlink">
    <!-- Generator: Sketch 64 (93537) - https://sketch.com -->
    <title>Combined Shape</title>
    <desc>Created with Sketch.</desc>
    <g id="Page-1" stroke="none" stroke-width="1" fill="none" fill-rule="evenodd">
        <path d="M8.69796105,3.54029193e-16 L9.04542726,0.00648876404 C10.0719977,0.0454213483 10.9561145,0.259550562 11.6977778,0.648876404 C12.521848,1.08146067 13.1524628,1.70716292 13.589622,2.52598315 C14.0267812,3.34480337 14.2453608,4.33099251 14.2453608,5.48455056 C14.2453608,6.64840824 14.0267812,7.6423221 13.589622,8.46629213 C13.1524628,9.29026217 12.5193356,9.91853933 11.6902405,10.3511236 C10.944055,10.7404494 10.061521,10.9545787 9.04263849,10.9935112 L8.69796105,11 L4.74845361,11 L4.74845361,-6.13321137e-16 L8.69796105,3.54029193e-16 Z M40.3134021,0.0360119048 L40.3134021,6.29717262 L40.3190711,6.54172619 C40.3530856,7.25770833 40.5401649,7.81458333 40.8803093,8.21235119 C41.2582474,8.65431548 41.8154639,8.87529762 42.5519588,8.87529762 C43.2593814,8.87529762 43.8020619,8.65431548 44.18,8.21235119 C44.5579381,7.7703869 44.7469072,7.13199405 44.7469072,6.29717262 L44.7469072,6.29717262 L44.7469072,0.0360119048 L47,0.0360119048 L47,6.19404762 L46.9948962,6.48014583 C46.9472609,7.79372917 46.5661787,8.80572917 45.8516495,9.51614583 C45.0860825,10.2773065 43.9861856,10.6578869 42.5519588,10.6578869 C41.0886598,10.6578869 39.9814948,10.2797619 39.2304639,9.5235119 C38.479433,8.7672619 38.1039175,7.65744048 38.1039175,6.19404762 L38.1039175,6.19404762 L38.1039175,0.0360119048 L40.3134021,0.0360119048 Z M22.0027835,0.0360119048 L26.7560825,10.5252976 L24.5029897,10.5252976 L23.5193814,8.19925595 L18.6917869,8.19925595 L17.7001031,10.5252976 L15.4179381,10.5252976 L20.1712371,0.0360119048 L22.0027835,0.0360119048 Z M35.5843299,0.0360119048 L35.5843299,1.70074405 L30.5693814,8.70014881 L35.7442268,8.6985119 L35.7442268,10.5252976 L28.0546392,10.5252976 L28.0546392,8.84583333 L33.0292096,1.86279762 L28.0546392,1.86279762 L28.0546392,0.0360119048 L35.5843299,0.0360119048 Z M2.71340206,6.875 L2.71340206,9.625 L-4.76185788e-13,9.625 L-4.75512232e-13,6.875 L2.71340206,6.875 Z M8.57736541,1.62219101 L6.69305842,1.62219101 L6.69305842,9.37780899 L8.57736541,9.37780899 C9.81347079,9.37780899 10.7405498,9.05337079 11.3586025,8.40449438 C11.9766552,7.75561798 12.2856816,6.78230337 12.2856816,5.48455056 C12.2856816,2.90964419 11.0495762,1.62219101 8.57736541,1.62219101 Z M21.1144674,2.51264881 L19.4395876,6.44449405 L22.7780412,6.44449405 L21.1144674,2.51264881 Z M2.71340206,1.375 L2.71340206,4.125 L-4.74838677e-13,4.125 L-4.74165121e-13,1.375 L2.71340206,1.375 Z" id="Combined-Shape" fill="#FF19B7" fill-rule="nonzero"></path>
    </g>
</svg>