<?xml version="1.0" encoding="UTF-8"?>
<svg width="14px" height="13px" viewBox="0 0 14 13" version="1.1" xmlns="http://www.w3.org/2000/svg" xmlns:xlink="http://www.w3.org/1999/xlink">
    <title>Star</title>
    <g id="Page-1" stroke="none" stroke-width="1" fill="none" fill-rule="evenodd">
        <path d="M4.74126515,4.09545002 L0.233245101,4.72890605 L0.187519752,4.7390771 C-0.00136414821,4.7975643 -0.0674850444,5.03629664 0.0824596201,5.1776202 L3.34445177,8.25087965 L2.57393945,12.5918769 L2.56984375,12.6341136 C2.5667741,12.8274507 2.78240869,12.9638964 2.96870096,12.8691975 L7,10.8194802 L11.031299,12.8691975 L11.0715775,12.8860157 C11.260796,12.948583 11.4616392,12.7924524 11.4260606,12.5918769 L10.6560924,8.25087965 L13.9175404,5.1776202 L13.94835,5.1434043 C14.0656059,4.98873769 13.9739733,4.7580203 13.7667549,4.72890605 L9.25927899,4.09545002 L7.24397603,0.146643388 C7.1441766,-0.0488811294 6.8558234,-0.0488811294 6.75602397,0.146643388 L4.74126515,4.09545002 Z" id="Star" fill="#FFC500" fill-rule="nonzero"></path>
    </g>
</svg>