<svg xmlns="http://www.w3.org/2000/svg" viewBox="0 0 550 320"><style>
@keyframes a_o { 0% { opacity: 0; } 10.909% { opacity: 0; } 16.364% { opacity: .5; } 27.273% { opacity: .8; } 34.545% { opacity: .5; } 38.182% { opacity: 0; } 100% { opacity: 0; } }
@keyframes b_o { 0% { opacity: 0; } 45.455% { opacity: 0; } 49.091% { opacity: 1; } 81.818% { opacity: 1; } 87.273% { opacity: 0; } 100% { opacity: 0; } }
@keyframes c_o { 0% { opacity: 0; } 45.455% { opacity: 0; } 49.091% { opacity: 1; } 81.818% { opacity: 1; } 87.273% { opacity: 0; } 100% { opacity: 0; } }
@keyframes d_o { 0% { opacity: 0; } 54.545% { opacity: 0; } 61.818% { opacity: .3; } 69.091% { opacity: 0; } 100% { opacity: 0; } }
</style><g transform="translate(275,155.9) scale(.4,.4) translate(-652.5,-328)"><rect x="43" y="588" fill="#bcbcbc" width="849" height="22"/><rect x="43" y="568" fill="#bcbcbc" width="111" height="16"/><rect x="43" y="624" fill="#bcbcbc" width="208" height="20"/><rect x="1097" y="77" fill="#a6a6a6" width="208" height="14"/><rect x="1097" y="202" fill="#a6a6a6" width="208" height="14"/><rect x="1097" y="327" fill="#a6a6a6" width="208" height="14"/><rect x="1097" y="452" fill="#a6a6a6" width="208" height="14"/><rect x="1097" y="577" fill="#a6a6a6" width="208" height="14"/><rect x="1097" y="97" fill="#a6a6a6" width="174" height="14"/><rect x="1097" y="222" fill="#a6a6a6" width="174" height="14"/><rect x="1097" y="347" fill="#a6a6a6" width="174" height="14"/><rect x="1097" y="472" fill="#a6a6a6" width="174" height="14"/><rect x="1097" y="597" fill="#a6a6a6" width="174" height="14"/><rect x="1097" y="117" fill="#cecece" width="101" height="10"/><rect x="1097" y="242" fill="#cecece" width="101" height="10"/><rect x="1097" y="367" fill="#cecece" width="101" height="10"/><rect x="1097" y="492" fill="#cecece" width="101" height="10"/><rect x="1097" y="617" fill="#cecece" width="101" height="10"/><g transform="translate(442,624)"><path d="M14.4 6h-0.8c.4-1.2 .8-2.9 .2-4.3c-0.3-0.8-0.9-1.3-1.7-1.6c-0.2-0.1-0.4-0.1-0.5-0.1c-1.1 0-2.1 1.1-3.6 3.9c-0.6 1.2-1.6 2.3-2.2 2.8c-0.3 .3-0.5 .5-0.7 .8c-0.5-0.8-1.4-1.3-2.3-1.3c-1.5 0-2.8 1.3-2.8 2.8v8.2c0 1.5 1.3 2.8 2.8 2.8c1 0 1.9-0.5 2.4-1.4c.6 .9 1.6 1.4 2.7 1.4h6.9c2.8 0 3.2-1.9 3.2-3v-7.4c0-2-1.6-3.6-3.6-3.6Zm-10.6 11.2c0 .5-0.5 1-1 1c-0.6 0-1-0.5-1-1v-8.2c0-0.5 .4-1 1-1c.5 0 1 .5 1 1v8.2Zm12.4-0.2c0 .7-0.1 1.2-1.4 1.2h-6.9c-0.9 0-1.8-0.8-1.8-1.8v-6.8v-0.1c0 0 0-0.7 .8-1.4c.8-0.7 1.9-1.9 2.7-3.4c1.2-2.3 1.8-2.8 2-2.9c.3 .1 .5 .3 .6 .6c.4 .9-0.1 2.8-0.8 4.1l-0.7 1.3h3.7c1 0 1.8 .8 1.8 1.8v7.4Z"/></g><g transform="translate(523,634) rotate(180) translate(-9,-10)"><path d="M14.4 6h-0.8c.4-1.2 .8-2.9 .2-4.3c-0.3-0.8-0.9-1.3-1.7-1.6c-0.2-0.1-0.4-0.1-0.5-0.1c-1.1 0-2.1 1.1-3.6 3.9c-0.6 1.2-1.6 2.3-2.2 2.8c-0.3 .3-0.5 .5-0.7 .8c-0.5-0.8-1.4-1.3-2.3-1.3c-1.5 0-2.8 1.3-2.8 2.8v8.2c0 1.5 1.3 2.8 2.8 2.8c1 0 1.9-0.5 2.4-1.4c.6 .9 1.6 1.4 2.7 1.4h6.9c2.8 0 3.2-1.9 3.2-3v-7.4c0-2-1.6-3.6-3.6-3.6Zm-10.6 11.2c0 .5-0.5 1-1 1c-0.6 0-1-0.5-1-1v-8.2c0-0.5 .4-1 1-1c.5 0 1 .5 1 1v8.2Zm12.4-0.2c0 .7-0.1 1.2-1.4 1.2h-6.9c-0.9 0-1.8-0.8-1.8-1.8v-6.8v-0.1c0 0 0-0.7 .8-1.4c.8-0.7 1.9-1.9 2.7-3.4c1.2-2.3 1.8-2.8 2-2.9c.3 .1 .5 .3 .6 .6c.4 .9-0.1 2.8-0.8 4.1l-0.7 1.3h3.7c1 0 1.8 .8 1.8 1.8v7.4Z"/></g><rect x="43.5" y="74.5" stroke="#979797" fill="#d8d8d8" width="855" height="475"/><g fill="#fff" transform="translate(707,517)"><path d="M.8 11.5h1.4c.2 1 .5 2 1.1 2.9l-0.9 .9c-0.3 .4-0.3 .9 0 1.2l1 1c.3 .4 .9 .4 1.2 0l.9-0.9c.9 .6 1.9 1 2.9 1.2v1.3c0 .5 .4 .9 .8 .9h1.5c.4 0 .8-0.4 .8-0.8v-1.4c1-0.2 2-0.5 2.9-1.1l.9 .9c.4 .3 .9 .3 1.2 0l1-1c.4-0.3 .4-0.9 0-1.2l-0.9-0.9c.6-0.9 1-1.9 1.2-2.9h1.3c.5 0 .9-0.4 .9-0.8v-1.5c0-0.4-0.4-0.8-0.8-0.8h-1.4c-0.2-1-0.5-2-1.1-2.9l.9-0.9c.3-0.4 .3-0.9 0-1.2l-1-1c-0.3-0.4-0.9-0.4-1.2 0l-0.9 .9c-0.9-0.6-1.9-1-2.9-1.2v-1.3c0-0.5-0.4-0.9-0.8-0.9h-1.5c-0.4 0-0.8 .4-0.8 .8v1.4c-1 .2-2 .5-2.9 1.1l-0.9-0.9c-0.4-0.3-0.9-0.3-1.2 0l-1 1c-0.4 .3-0.4 .9 0 1.2l.9 .9c-0.6 .9-1 1.9-1.2 2.9h-1.3c-0.5 0-0.9 .4-0.9 .8v1.5c0 .4 .4 .8 .8 .8Zm6.5-4.2c1.5-1.5 3.9-1.5 5.4 0c1.5 1.5 1.5 3.9 0 5.4c-1.5 1.5-3.9 1.5-5.4 0c-1.5-1.5-1.5-3.9 0-5.4Z"/></g><path d="M825.5 518v17h-25v-17h25Zm-2 2h-21v13h21v-13Z" fill="#fff"/><rect x="754.5" y="518" stroke="#fff" stroke-width="2" width="22" height="18" rx="2" fill="none"/><rect x="763.9" y="526" fill="#fff" width="9" height="6"/><rect x="56" y="500" fill="red" width="832" height="3"/><rect x="133.5" y="519" fill="#fff" width="2.5" height="16"/><path fill="#fff" d="M120 519.8v15l12-7.5Z"/><path fill="#fff" d="M72 516.7v21.2l17-10.6Z"/><path d="M177 518.5c3.9 0 7 3.8 7 8.5c0 4.6-3 8.4-6.8 8.5h-0.2v-2c2.7 0 5-2.9 5-6.5c0-3.5-2.2-6.4-4.8-6.5h-0.2v-2Zm-1.9 .2v16.7l-5-5.1h-4.1v-6.6h4.1l5-5Zm1.9 4.8c1.7 0 3 1.6 3 3.5c0 1.8-1.2 3.4-2.8 3.5h-0.2v-7Z" fill="#fff"/><path fill="#fff" d="M853.5 529.7v4.9h5v2h-7v-6.9Z"/><path fill="#fff" d="M868.5 529.7v4.9h-5v2h7v-6.9Z"/><path d="M655 521.2h15v11.5h-15c-2.8 0-5-2.2-5-5v-1.5c0-2.7 2.2-5 5-5Z" fill="#fff" opacity=".45"/><path d="M674.5 518c5.2 0 9.5 4.3 9.5 9.5c0 5.2-4.3 9.5-9.5 9.5c-5.2 0-9.5-4.3-9.5-9.5c0-5.2 4.3-9.5 9.5-9.5Zm-2.2 5.2v8l6.4-4l-6.4-4Z" fill="#fff"/><path fill="#fff" d="M858.4 520.7h-4.9v5h-2v-7h6.9Z"/><path fill="#fff" d="M863.5 520.7h4.9v5h2v-7h-6.9Z"/><rect x="337.5" y=".5" stroke="#c9c9c9" fill="#fff" width="635" height="38"/><rect x="892.5" y=".5" stroke="#c9c9c9" fill="#f0f0f0" width="80" height="38"/><path d="M49.7 9.8l3.5-0.2c3.4-0.2 6.7-0.2 10 0l4.1 .2c3.2 .1 5.7 2.8 5.7 6v6.8c0 3.1-2.4 5.7-5.5 6l-2.2 .2c-4.7 .3-9.5 .3-14.2-0.1l-1.6-0.1c-3.1-0.3-5.5-2.9-5.5-6v-6.8c0-3.2 2.5-5.9 5.7-6Z" fill="red"/><rect y="12" width="17" height="1"/><rect y="18" width="17" height="1"/><rect y="24" width="17" height="1"/><rect width="64.3" height="16.4" fill="#f07" rx="2" opacity=".5" transform="translate(741.5,635.2) scale(2.222,2.222) translate(-32.2,-8.2)" style="animation: 5.5s linear infinite both a_o;"/><g transform="translate(684,622)"><path d="M14 9v-4l8 7l-8 7v-4c0 0-12-0.9-12 4.7c0-11.3 12-10.7 12-10.7Z" stroke="#000" stroke-width="1.5" fill="none"/></g><path fill="#242424" d="M721.8 639.1c-1.3 0-2.2-0.3-2.9-1c-0.6-0.6-1-1.6-1-2.8v-5.6h1.7v5.6c0 .8 .2 1.4 .6 1.9c.3 .4 .9 .6 1.6 .6c.7 0 1.3-0.2 1.7-0.6c.3-0.5 .5-1.1 .5-1.9v-5.6h1.7v5.6c0 1.2-0.3 2.2-1 2.8c-0.7 .7-1.6 1-2.9 1Zm6-0.1v-9.3h3.4c1 0 1.9 .2 2.6 .6c.7 .4 1.2 .9 1.6 1.6c.4 .7 .6 1.5 .6 2.5c0 .9-0.2 1.8-0.6 2.5c-0.4 .7-0.9 1.2-1.6 1.6c-0.7 .3-1.6 .5-2.6 .5Zm1.7-1.4h1.6c1.1 0 1.9-0.2 2.4-0.8c.5-0.5 .8-1.3 .8-2.4c0-2.2-1.1-3.3-3.2-3.3h-1.6Zm12.4 1.5c-0.9 0-1.7-0.2-2.3-0.6c-0.7-0.3-1.2-0.9-1.6-1.6c-0.3-0.7-0.5-1.6-0.5-2.5c0-1 .2-1.9 .5-2.6c.4-0.7 .9-1.2 1.6-1.6c.6-0.4 1.4-0.6 2.3-0.6c.9 0 1.7 .2 2.3 .6c.7 .4 1.2 .9 1.6 1.6c.3 .8 .5 1.6 .5 2.6c0 .9-0.2 1.8-0.5 2.5c-0.4 .7-0.9 1.3-1.6 1.6c-0.6 .4-1.4 .6-2.3 .6Zm0-1.3c.8 0 1.5-0.3 2-0.9c.5-0.6 .7-1.4 .7-2.5c0-1.2-0.2-2-0.7-2.6c-0.5-0.5-1.2-0.8-2-0.8c-0.8 0-1.5 .3-2 .8c-0.5 .6-0.7 1.4-0.7 2.6c0 1.1 .2 1.9 .7 2.5c.5 .6 1.2 .9 2 .9Zm9.4 1.3c-0.5 0-1 0-1.4-0.1c-0.4-0.1-0.9-0.2-1.2-0.4c-0.4-0.2-0.7-0.4-1-0.6l.5-1.2c.5 .3 1 .6 1.5 .7c.5 .2 1 .3 1.6 .3c.6 0 1.1-0.1 1.5-0.4c.3-0.2 .5-0.5 .5-0.9c0-0.3-0.1-0.5-0.3-0.6c-0.1-0.2-0.3-0.3-0.7-0.4c-0.3-0.1-0.7-0.2-1.1-0.3c-0.6-0.2-1-0.3-1.5-0.4c-0.4-0.2-0.7-0.4-1-0.6c-0.3-0.2-0.5-0.4-0.6-0.7c-0.2-0.3-0.2-0.7-0.2-1.1c0-0.5 .1-1 .4-1.4c.3-0.4 .7-0.8 1.2-1c.6-0.2 1.2-0.4 1.9-0.4c.5 0 .9 .1 1.3 .2c.4 .1 .8 .2 1.1 .3c.4 .2 .7 .4 .9 .6l-0.5 1.3c-0.5-0.4-0.9-0.6-1.3-0.8c-0.5-0.2-1-0.2-1.5-0.2c-0.6 0-1 .1-1.4 .3c-0.3 .3-0.5 .6-0.5 1c0 .3 .1 .5 .2 .7c.2 .1 .4 .3 .7 .4c.3 .1 .7 .2 1.1 .3c.6 .1 1 .3 1.5 .4c.4 .2 .7 .3 1 .5c.3 .2 .6 .5 .7 .8c.2 .2 .2 .6 .2 1c0 .5-0.1 1-0.4 1.4c-0.3 .4-0.7 .8-1.3 1c-0.5 .2-1.2 .3-1.9 .3Zm7.2-0.1v-7.9h-3v-1.4h7.7v1.4h-3v7.9Zm12.4 1.5l.2 .8c-0.2 .1-0.4 .1-0.6 .2c-0.2 0-0.4 .1-0.6 .1c-0.5 0-0.9-0.2-1.2-0.4c-0.3-0.3-0.5-0.6-0.5-1c0-0.7 .3-1.1 .9-1.4l.3 .2h-5v-9.3h6.2v1.4h-4.5v2.5h4.3v1.4h-4.3v2.7h4.5v1.3h-0.2c-0.3 0-0.6 .1-0.8 .3c-0.2 .1-0.2 .3-0.2 .6c0 .3 0 .4 .2 .6c.1 .1 .3 .2 .6 .2c.1 0 .2-0.1 .3-0.1c.1 0 .3-0.1 .4-0.1Zm1.5-1.5v-9.3h4c1 0 1.8 .3 2.3 .8c.6 .4 .9 1.1 .9 1.9c0 .9-0.3 1.5-0.9 2c-0.5 .5-1.3 .7-2.3 .7h-2.3v3.9Zm1.7-5.2h2.1c.6 0 1-0.1 1.3-0.3c.3-0.3 .5-0.6 .5-1.1c0-0.4-0.2-0.7-0.5-1c-0.3-0.2-0.7-0.3-1.3-0.3h-2.1Zm7 5.2v-9.3h1.3l5.3 7l-0.3 .2v-7.2h1.5v9.3h-1.2l-5.3-6.9l.3-0.2v7.1Zm10 0v-9.3h1.7v9.3Zm2.6 2.3v-1.4c.6 .1 1 .1 1.3 .1c.3 0 .5-0.2 .6-0.4c.1-0.2 .2-0.5 .2-1v-8.9h1.7v8.9c0 .8-0.2 1.4-0.4 1.8c-0.2 .5-0.6 .8-1.2 .9c-0.5 .2-1.2 .2-2.2 0Z"/><path fill="#fff" d="M55.5 14.3v8.6l7-4.3Z"/><path fill="#242424" d="M470.5 638.2v-7.2l.8 .2l-2.7 1.6v-1.5l2.6-1.6h.9v8.5Zm-2 .8v-1.4h5.7v1.4Zm10.5 .1c-1.1 0-1.9-0.4-2.5-1.2c-0.6-0.8-0.9-2-0.9-3.5c0-1.6 .3-2.7 .9-3.6c.6-0.8 1.4-1.2 2.5-1.2c1.1 0 1.9 .4 2.5 1.2c.6 .9 .9 2 .9 3.6c0 1.5-0.3 2.7-0.9 3.5c-0.6 .8-1.4 1.2-2.5 1.2Zm0-1.3c.6 0 1-0.3 1.3-0.8c.3-0.6 .4-1.4 .4-2.6c0-1.2-0.1-2.1-0.4-2.6c-0.3-0.6-0.7-0.8-1.3-0.8c-0.6 0-1 .2-1.3 .8c-0.3 .5-0.4 1.4-0.4 2.6c0 1.2 .1 2 .4 2.6c.3 .5 .7 .8 1.3 .8Zm8.1 1.3c-1.1 0-1.9-0.4-2.5-1.2c-0.6-0.8-0.9-2-0.9-3.5c0-1.6 .3-2.7 .9-3.6c.6-0.8 1.4-1.2 2.5-1.2c1.1 0 1.9 .4 2.5 1.2c.6 .9 .9 2 .9 3.6c0 1.5-0.3 2.7-0.9 3.5c-0.6 .8-1.4 1.2-2.5 1.2Zm0-1.3c.6 0 1-0.3 1.3-0.8c.3-0.6 .4-1.4 .4-2.6c0-1.2-0.1-2.1-0.4-2.6c-0.3-0.6-0.7-0.8-1.3-0.8c-0.6 0-1 .2-1.3 .8c-0.3 .5-0.4 1.4-0.4 2.6c0 1.2 .1 2 .4 2.6c.3 .5 .7 .8 1.3 .8Z"/><path fill="#242424" d="M537 639v-9.3h1.2l5.4 7l-0.4 .2v-7.2h1.6v9.3h-1.3l-5.3-6.9l.4-0.2v7.1Zm9.9 0v-6.6h1.6v6.6Zm-0.1-9.5h1.8v1.6h-1.8Zm9.1 8.8c-0.3 .2-0.7 .4-1.2 .6c-0.4 .1-0.9 .2-1.3 .2c-0.8 0-1.4-0.1-1.9-0.4c-0.5-0.3-0.9-0.7-1.2-1.2c-0.2-0.5-0.4-1.1-0.4-1.8c0-0.7 .1-1.3 .4-1.8c.3-0.5 .7-0.9 1.1-1.2c.5-0.3 1.1-0.4 1.7-0.4c.6 0 1.1 .1 1.5 .4c.5 .2 .8 .6 1.1 1.1c.2 .5 .3 1.1 .3 1.8v.2h-4.7l.1-0.9h3.6l-0.4 .5c0-0.7-0.1-1.1-0.4-1.5c-0.2-0.3-0.6-0.5-1.1-0.5c-0.5 0-0.9 .2-1.2 .6c-0.3 .4-0.4 .9-0.4 1.6c0 .7 .1 1.3 .5 1.7c.3 .4 .8 .5 1.4 .5c.4 0 .7 0 1.1-0.1c.3-0.2 .6-0.3 .9-0.5Zm5.4 3.5v-7.5c0-0.3 0-0.6 0-0.9c0-0.4-0.1-0.7-0.1-1h1.5l.2 1.3l-0.1 .1c.1-0.5 .4-0.9 .8-1.1c.4-0.3 .9-0.4 1.4-0.4c.6 0 1.1 .1 1.6 .4c.4 .3 .7 .7 1 1.2c.2 .5 .4 1.1 .4 1.8c0 .7-0.2 1.3-0.4 1.8c-0.3 .5-0.6 .9-1 1.2c-0.5 .3-1 .4-1.6 .4c-0.5 0-1-0.1-1.4-0.4c-0.4-0.3-0.7-0.6-0.8-1.1l.1-0.2v4.4Zm3.3-4c.6 0 1-0.1 1.3-0.5c.3-0.4 .4-0.9 .4-1.6c0-0.7-0.1-1.2-0.4-1.6c-0.3-0.4-0.7-0.6-1.3-0.6c-0.5 0-0.9 .2-1.2 .6c-0.3 .4-0.5 .9-0.5 1.6c0 .7 .2 1.2 .5 1.6c.3 .4 .7 .5 1.2 .5Zm7.8 1.3c-0.7 0-1.3-0.1-1.8-0.4c-0.5-0.3-0.9-0.7-1.1-1.2c-0.3-0.5-0.4-1.1-0.4-1.8c0-0.7 .1-1.3 .4-1.8c.2-0.5 .6-0.9 1.1-1.2c.5-0.3 1.1-0.4 1.8-0.4c.7 0 1.2 .1 1.7 .4c.5 .3 .9 .7 1.2 1.2c.3 .5 .4 1.1 .4 1.8c0 .7-0.1 1.3-0.4 1.8c-0.3 .5-0.7 .9-1.2 1.2c-0.5 .3-1 .4-1.7 .4Zm0-1.3c.5 0 .9-0.1 1.2-0.5c.3-0.4 .5-0.9 .5-1.6c0-0.7-0.2-1.3-0.5-1.6c-0.3-0.4-0.7-0.6-1.2-0.6c-0.6 0-1 .2-1.3 .6c-0.3 .3-0.4 .9-0.4 1.6c0 .7 .1 1.2 .4 1.6c.3 .4 .7 .5 1.3 .5Zm11 1.2h-1.6v-1.7l.2 .3c-0.2 .5-0.5 .8-0.9 1.1c-0.4 .3-0.9 .4-1.4 .4c-0.6 0-1.1-0.1-1.5-0.4c-0.5-0.3-0.8-0.7-1-1.2c-0.3-0.6-0.4-1.2-0.4-1.8c0-0.7 .1-1.3 .3-1.8c.3-0.5 .6-0.9 1.1-1.2c.4-0.3 .9-0.4 1.5-0.4c.5 0 1 .1 1.4 .4c.4 .3 .7 .6 .9 1.1l-0.2 .2v-4.6h1.6Zm-3.3-1.2c.6 0 1-0.1 1.3-0.5c.3-0.4 .4-0.9 .4-1.6c0-0.7-0.1-1.2-0.4-1.6c-0.3-0.4-0.7-0.6-1.3-0.6c-0.5 0-0.9 .2-1.2 .6c-0.3 .4-0.5 .9-0.5 1.6c0 .7 .2 1.2 .5 1.6c.3 .4 .7 .5 1.2 .5Zm8.1 1.3c-0.7 0-1.3-0.1-1.8-0.4c-0.5-0.3-0.8-0.7-1.1-1.2c-0.3-0.5-0.4-1.1-0.4-1.8c0-0.7 .1-1.3 .4-1.8c.3-0.5 .6-0.9 1.1-1.2c.5-0.3 1.1-0.4 1.8-0.4c.7 0 1.3 .1 1.8 .4c.5 .3 .8 .7 1.1 1.2c.3 .5 .4 1.1 .4 1.8c0 .7-0.1 1.3-0.4 1.8c-0.3 .5-0.6 .9-1.1 1.2c-0.5 .3-1.1 .4-1.8 .4Zm0-1.3c.5 0 1-0.1 1.3-0.5c.2-0.4 .4-0.9 .4-1.6c0-0.7-0.2-1.3-0.4-1.6c-0.3-0.4-0.8-0.6-1.3-0.6c-0.5 0-1 .2-1.3 .6c-0.3 .3-0.4 .9-0.4 1.6c0 .7 .1 1.2 .4 1.6c.3 .4 .8 .5 1.3 .5Zm4.7 1.2v-9.6h1.7v4.6l-0.2-0.2c.2-0.5 .4-0.8 .8-1.1c.5-0.3 .9-0.4 1.5-0.4c.6 0 1.1 .1 1.5 .4c.4 .3 .8 .7 1 1.2c.3 .5 .4 1.1 .4 1.8c0 .6-0.1 1.2-0.4 1.8c-0.2 .5-0.6 .9-1 1.2c-0.4 .2-0.9 .4-1.5 .4c-0.6 0-1-0.1-1.5-0.4c-0.4-0.3-0.6-0.6-0.8-1.1l.2-0.3v1.7Zm3.4-1.2c.5 0 .9-0.1 1.2-0.5c.3-0.4 .5-0.9 .5-1.6c0-0.7-0.2-1.2-0.5-1.6c-0.3-0.4-0.7-0.6-1.2-0.6c-0.6 0-1 .2-1.3 .6c-0.3 .4-0.4 .9-0.4 1.6c0 .7 .1 1.2 .4 1.6c.3 .4 .7 .5 1.3 .5Zm7.3 1.3c-0.6 0-1.1-0.1-1.5-0.4c-0.5-0.3-0.8-0.7-1-1.2c-0.3-0.5-0.4-1.1-0.4-1.8c0-0.7 .1-1.3 .4-1.8c.2-0.5 .5-0.9 1-1.2c.4-0.3 .9-0.4 1.5-0.4c.6 0 1 .1 1.5 .4c.4 .2 .6 .6 .8 1.1l-0.2 .1v-1.5h1.6v6.6h-1.6v-1.5l.2 .1c-0.2 .5-0.4 .8-0.8 1.1c-0.5 .3-0.9 .4-1.5 .4Zm.4-1.3c.6 0 1-0.1 1.3-0.5c.3-0.4 .4-0.9 .4-1.6c0-0.7-0.1-1.2-0.4-1.6c-0.3-0.4-0.7-0.6-1.3-0.6c-0.5 0-0.9 .2-1.2 .6c-0.3 .4-0.5 .9-0.5 1.6c0 .7 .2 1.2 .5 1.6c.3 .4 .7 .5 1.2 .5Zm8.8 1.2v-4.7c0-0.3 0-0.6 0-0.9c0-0.4 0-0.7-0.1-1h1.6l.1 1.3h-0.1c.1-0.4 .4-0.8 .8-1c.4-0.3 .8-0.4 1.3-0.4c.7 0 1.1 .1 1.5 .4c.3 .3 .6 .8 .7 1.4l-0.3-0.2c.1-0.5 .4-0.9 .8-1.2c.5-0.3 .9-0.4 1.5-0.4c.7 0 1.3 .2 1.7 .6c.3 .5 .5 1.2 .5 2.1v4h-1.6v-4c0-0.5-0.1-0.9-0.3-1.1c-0.1-0.2-0.4-0.3-0.8-0.3c-0.5 0-0.8 .1-1.1 .4c-0.2 .3-0.4 .8-0.4 1.3v3.7h-1.6v-4c0-0.5-0.1-0.9-0.3-1.1c-0.1-0.2-0.4-0.3-0.8-0.3c-0.5 0-0.8 .1-1.1 .4c-0.2 .3-0.3 .8-0.3 1.3v3.7Zm11.7 0v-6.6h1.7v6.6Zm0-9.5h1.8v1.6h-1.8Zm9.6 9.6c-1.2 0-2.2-0.3-2.9-0.8l.5-1.2c.3 .3 .7 .5 1.1 .6c.4 .1 .8 .2 1.3 .2c.4 0 .7-0.1 .9-0.2c.2-0.1 .3-0.3 .3-0.5c0-0.2-0.1-0.4-0.2-0.5c-0.2-0.1-0.4-0.2-0.8-0.3l-1.1-0.3c-0.6-0.1-1-0.3-1.3-0.6c-0.3-0.3-0.5-0.7-0.5-1.2c0-0.4 .2-0.7 .4-1.1c.2-0.3 .5-0.5 .9-0.7c.4-0.1 .9-0.2 1.4-0.2c.5 0 1 0 1.4 .2c.4 .1 .8 .3 1.1 .6l-0.4 1.1c-0.4-0.2-0.7-0.4-1-0.5c-0.4-0.2-0.7-0.2-1.1-0.2c-0.3 0-0.6 0-0.8 .2c-0.2 .1-0.4 .3-0.4 .6c0 .1 .1 .3 .2 .4c.2 .1 .4 .2 .7 .3l1.1 .3c.6 .1 1.1 .3 1.4 .6c.3 .3 .5 .7 .5 1.2c0 .6-0.3 1.1-0.8 1.5c-0.4 .3-1.1 .5-1.9 .5Zm4.3-0.1v-6.6h1.6v6.6Zm-0.1-9.5h1.8v1.6h-1.8Zm7.8 12.1c-0.5 0-0.8-0.1-1.2-0.4c-0.3-0.3-0.4-0.6-0.4-1c0-0.3 .1-0.6 .2-0.8c.1-0.2 .3-0.4 .6-0.6l.3 .2c-0.1 0-0.3 .1-0.4 .1c-0.1 0-0.2 0-0.3 0c-0.7 0-1.4-0.1-1.9-0.4c-0.5-0.3-0.9-0.7-1.2-1.2c-0.2-0.5-0.4-1.1-0.4-1.8c0-0.7 .2-1.3 .4-1.8c.3-0.5 .7-0.9 1.1-1.2c.5-0.3 1.1-0.4 1.7-0.4c.6 0 1.1 .1 1.6 .4c.4 .2 .7 .6 1 1.1c.2 .5 .3 1.1 .3 1.8v.2h-4.6v-0.9h3.7l-0.5 .5c0-0.7-0.1-1.1-0.4-1.5c-0.2-0.3-0.6-0.5-1.1-0.5c-0.5 0-0.9 .2-1.2 .6c-0.3 .4-0.4 .9-0.4 1.6c0 .7 .2 1.3 .5 1.7c.3 .4 .8 .5 1.4 .5c.4 0 .7 0 1.1-0.1c.3-0.2 .6-0.3 .9-0.5l.5 1.1c-0.1 0-0.1 .1-0.2 .1c-0.1 .1-0.3 .2-0.5 .3c-0.4 .2-0.7 .4-0.9 .6c-0.1 .2-0.2 .4-0.2 .6c0 .3 .1 .5 .2 .6c.2 .1 .4 .2 .6 .2c.3 0 .5-0.1 .8-0.2l.2 .8c-0.2 .1-0.4 .2-0.6 .2c-0.2 .1-0.4 .1-0.7 .1Z"/><ellipse cx="871.5" cy="633.5" rx="1.5" ry="1.5"/><ellipse cx="878.5" cy="633.5" rx="1.5" ry="1.5"/><ellipse cx="885.5" cy="633.5" rx="1.5" ry="1.5"/><g transform="translate(823.5,629)"><path d="M16.5 0v4h4v2h-4v4h-2v-4h-4v-2h4v-4h2Zm-16.5 8.5h8v1h-8v-1Zm0-4h8v1h-8v-1Zm0-4h12v1h-12v-1Z"/></g><rect x="921" y="74" fill="#d8d8d8" width="169" height="95"/><rect x="921" y="199" fill="#d8d8d8" width="169" height="95"/><rect x="921" y="324" fill="#d8d8d8" width="169" height="95"/><rect x="921" y="449" fill="#d8d8d8" width="169" height="95"/><rect x="921" y="574" fill="#d8d8d8" width="169" height="95"/></g><rect width="550" height="320" fill="rgba(0,0,0,0.68)" rx="2" opacity="0" style="animation: 5.5s linear infinite both b_o;"/><g opacity="0" transform="translate(290.3,165) scale(.7,.7) translate(-264.2,-147.7)" style="animation: 5.5s linear infinite both c_o;"><rect x=".5" y=".5" stroke="#e3e3e3" fill="#fff" width="528" height="309"/><path fill="#242424" d="M38.2 42.1c-1.4 0-2.4-0.3-3.1-1c-0.7-0.7-1.1-1.8-1.1-3.1v-6h1.8v6.1c0 .8 .2 1.5 .6 1.9c.4 .5 1 .7 1.8 .7c.8 0 1.3-0.2 1.8-0.7c.4-0.4 .6-1.1 .6-1.9v-6.1h1.8v6c0 1.3-0.4 2.4-1.1 3.1c-0.7 .7-1.8 1-3.1 1Zm13.1-0.1h-1.8v-1.8l.2 .3c-0.2 .5-0.5 .9-0.9 1.2c-0.4 .3-1 .4-1.6 .4c-0.6 0-1.1-0.2-1.6-0.5c-0.5-0.3-0.8-0.7-1.1-1.3c-0.3-0.5-0.4-1.2-0.4-1.9c0-0.7 .1-1.4 .4-1.9c.3-0.6 .6-1 1.1-1.3c.5-0.3 1-0.5 1.6-0.5c.6 0 1.2 .2 1.6 .5c.4 .3 .7 .7 .9 1.2l-0.2 .2v-4.9h1.8Zm-3.6-1.2c.6 0 1-0.2 1.4-0.6c.3-0.4 .4-1 .4-1.8c0-0.7-0.1-1.3-0.4-1.7c-0.4-0.4-0.8-0.6-1.4-0.6c-0.6 0-1 .2-1.4 .6c-0.3 .4-0.4 1-0.4 1.7c0 .7 .1 1.3 .4 1.7c.4 .4 .8 .7 1.4 .7Zm8.7 1.3c-0.7 0-1.4-0.2-1.9-0.4c-0.5-0.3-0.9-0.8-1.2-1.3c-0.3-0.6-0.5-1.2-0.5-2c0-0.7 .2-1.4 .5-1.9c.3-0.6 .7-1 1.2-1.3c.5-0.3 1.2-0.5 1.9-0.5c.7 0 1.4 .2 1.9 .5c.5 .3 .9 .7 1.2 1.3c.3 .5 .5 1.2 .5 1.9c0 .8-0.2 1.4-0.5 2c-0.3 .5-0.7 1-1.2 1.2c-0.5 .3-1.2 .5-1.9 .5Zm0-1.3c.6 0 1-0.2 1.4-0.6c.3-0.4 .4-1 .4-1.8c0-0.7-0.1-1.3-0.4-1.7c-0.4-0.4-0.8-0.6-1.4-0.6c-0.6 0-1 .2-1.4 .6c-0.3 .4-0.4 1-0.4 1.7c0 .8 .1 1.4 .4 1.8c.4 .4 .8 .6 1.4 .6Zm7.7 1.3c-1.3 0-2.3-0.3-3-0.9l.5-1.2c.3 .3 .7 .5 1.2 .6c.4 .2 .9 .2 1.3 .2c.5 0 .8 0 1-0.2c.3-0.1 .4-0.3 .4-0.6c0-0.2-0.1-0.4-0.3-0.5c-0.1-0.1-0.4-0.2-0.8-0.3l-1.2-0.3c-0.6-0.1-1.1-0.4-1.4-0.7c-0.3-0.3-0.5-0.7-0.5-1.3c0-0.4 .1-0.8 .4-1.1c.2-0.3 .6-0.6 1-0.8c.4-0.2 .9-0.3 1.5-0.3c.5 0 1 .1 1.5 .3c.4 .1 .8 .4 1.2 .6l-0.5 1.2c-0.4-0.2-0.7-0.4-1.1-0.6c-0.4-0.1-0.7-0.2-1.1-0.2c-0.4 0-0.7 .1-0.9 .3c-0.3 .1-0.4 .3-0.4 .6c0 .2 .1 .4 .2 .5c.2 .1 .4 .2 .7 .3l1.2 .3c.7 .1 1.2 .4 1.6 .7c.3 .3 .4 .8 .4 1.3c0 .6-0.2 1.2-0.7 1.5c-0.6 .4-1.3 .6-2.2 .6Zm3.7-5.9v-1.3h5v1.3Zm5 4.3v1.4c-0.2 .1-0.4 .1-0.5 .2c-0.2 0-0.4 0-0.6 0c-0.8 0-1.4-0.2-1.9-0.7c-0.4-0.4-0.6-1.1-0.6-1.9v-6.3l1.7-0.6v6.8c0 .3 .1 .6 .2 .8c.1 .1 .2 .3 .4 .3c.2 .1 .4 .2 .6 .2c.1 0 .2-0.1 .3-0.1c.1 0 .3 0 .4-0.1Zm5.8 4.3c-0.5 0-0.9-0.1-1.3-0.4c-0.3-0.3-0.5-0.7-0.5-1.1c0-0.3 .1-0.6 .3-0.9c.1-0.2 .3-0.4 .6-0.6l.4 .2c-0.2 0-0.3 .1-0.4 .1c-0.2 0-0.3 0-0.4 0c-0.8 0-1.5-0.1-2-0.4c-0.6-0.3-1-0.7-1.3-1.3c-0.3-0.5-0.5-1.2-0.5-2c0-0.7 .2-1.3 .5-1.9c.3-0.5 .7-1 1.2-1.3c.5-0.3 1.1-0.5 1.8-0.5c.6 0 1.2 .2 1.6 .5c.5 .3 .9 .7 1.1 1.2c.3 .5 .4 1.2 .4 1.9v.3h-5v-1h4l-0.5 .5c0-0.7-0.1-1.2-0.4-1.6c-0.3-0.3-0.7-0.5-1.2-0.5c-0.6 0-1 .2-1.3 .6c-0.3 .4-0.5 1-0.5 1.7c0 .8 .2 1.5 .6 1.9c.3 .4 .8 .6 1.5 .6c.4 0 .8-0.1 1.2-0.2c.3-0.2 .7-0.3 1-0.6l.5 1.2c-0.1 .1-0.2 .1-0.3 .2c-0.1 .1-0.3 .2-0.5 .3c-0.4 .2-0.7 .4-0.9 .6c-0.2 .2-0.3 .5-0.3 .7c0 .3 .1 .5 .3 .6c.1 .2 .3 .2 .6 .2c.3 0 .6 0 .8-0.2l.3 .9c-0.2 .1-0.4 .2-0.7 .2c-0.2 .1-0.4 .1-0.7 .1Zm3.2 .2v-8.1c0-0.3 0-0.6 0-1c0-0.3 0-0.6-0.1-1h1.7l.1 1.4l-0.1 .1c.2-0.5 .5-0.9 .9-1.2c.5-0.3 1-0.5 1.6-0.5c.6 0 1.1 .2 1.6 .5c.5 .3 .9 .8 1.1 1.3c.3 .6 .4 1.2 .4 2c0 .7-0.1 1.4-0.4 1.9c-0.2 .5-0.6 1-1.1 1.3c-0.5 .3-1 .4-1.6 .4c-0.6 0-1.1-0.1-1.6-0.4c-0.4-0.3-0.7-0.7-0.9-1.2l.2-0.3v4.8Zm3.6-4.2c.6 0 1.1-0.2 1.4-0.6c.3-0.4 .4-1 .4-1.7c0-0.8-0.1-1.4-0.4-1.8c-0.3-0.4-0.8-0.6-1.4-0.6c-0.6 0-1 .2-1.3 .6c-0.3 .4-0.5 1-0.5 1.7c0 .8 .2 1.4 .5 1.8c.3 .4 .7 .6 1.3 .6Zm5.2 1.2v-5.1c0-0.3 0-0.6-0.1-1c0-0.3 0-0.6-0.1-1h1.7l.2 1.4l-0.2 .1c.2-0.6 .6-1 1-1.2c.4-0.3 1-0.5 1.5-0.5c1.7 0 2.6 1 2.6 3v4.3h-1.8v-4.3c0-0.5-0.1-0.9-0.3-1.2c-0.2-0.2-0.6-0.4-1-0.4c-0.6 0-1 .2-1.3 .5c-0.3 .4-0.5 .8-0.5 1.4v4Zm8.5 0v-7.1h1.7v7.1Zm-0.1-10.3h1.9v1.7h-1.9Zm1.9 11.9c.2 0 .3 0 .4 0c.1 .1 .2 .1 .3 .1c.2 0 .4-0.1 .6-0.2c.1 0 .3-0.2 .4-0.3c.1-0.2 .1-0.5 .1-0.8v-7.5h1.8v7.6c0 .8-0.2 1.5-0.7 1.9c-0.4 .5-1 .7-1.8 .7c-0.2 0-0.4 0-0.5 0c-0.2-0.1-0.4-0.1-0.6-0.1Zm1.7-11.9h2v1.7h-2Z"/><path d="M504.9 13l.7 .7l-11.3 11.4l11.3 11.3l-0.7 .7l-11.3-11.3l-11.4 11.3l-0.7-0.7l11.4-11.3l-11.4-11.4l.7-0.7l11.4 11.4l11.3-11.4Z" stroke="#979797" fill="#d8d8d8"/><ellipse cx="108.5" cy="99.5" stroke="#979797" fill="#d8d8d8" rx="29" ry="29"/><ellipse cx="209.5" cy="99.5" stroke="#979797" fill="#d8d8d8" rx="29" ry="29"/><ellipse cx="310.5" cy="99.5" stroke="#979797" fill="#d8d8d8" rx="29" ry="29"/><ellipse cx="411.5" cy="99.5" stroke="#979797" fill="#d8d8d8" rx="29" ry="29"/><rect x="33.5" y="260.5" stroke="#979797" width="25" height="25" fill="none"/><rect x="33.5" y="170.5" stroke="#d2d2d2" fill="#f9f9f9" width="471" height="46"/><rect fill="#f07" width="79.9" height="33" opacity="0" transform="translate(424.6,177.5)" style="animation: 5.5s linear infinite both d_o;"/><path fill="#242424" d="M47 199v-10.3h1.4v4.7l-0.2 .1c.2-0.6 .6-1 1-1.3c.5-0.3 1-0.4 1.6-0.4c1.7 0 2.5 .9 2.5 2.8v4.4h-1.4v-4.3c0-0.6-0.1-1.1-0.4-1.4c-0.2-0.2-0.6-0.4-1.1-0.4c-0.6 0-1.1 .2-1.4 .6c-0.4 .4-0.6 .9-0.6 1.5v4Zm7.3-6v-1.1h4.7v1.1Zm4.7 4.8v1.1c-0.2 .1-0.3 .1-0.5 .2c-0.2 0-0.4 0-0.6 0c-0.7 0-1.2-0.2-1.6-0.6c-0.5-0.4-0.7-1-0.7-1.8v-6.5l1.5-0.5v6.9c0 .3 0 .6 .1 .8c.1 .2 .3 .3 .4 .4c.2 .1 .4 .1 .6 .1c.2 0 .3 0 .4 0c.1 0 .2-0.1 .4-0.1Zm.2-4.8v-1.1h4.7v1.1Zm4.7 4.8v1.1c-0.2 .1-0.3 .1-0.5 .2c-0.2 0-0.3 0-0.5 0c-0.8 0-1.3-0.2-1.7-0.6c-0.4-0.4-0.6-1-0.6-1.8v-6.5l1.4-0.5v6.9c0 .3 0 .6 .1 .8c.1 .2 .3 .3 .5 .4c.1 .1 .3 .1 .6 .1c.1 0 .2 0 .3 0c.1 0 .3-0.1 .4-0.1Zm1.1 4.2v-8.1c0-0.3 0-0.6 0-1c0-0.3 0-0.6-0.1-1h1.4l.1 1.5l-0.1 .1c.1-0.5 .4-1 .9-1.3c.4-0.3 1-0.4 1.6-0.4c.6 0 1.1 .1 1.6 .4c.5 .3 .8 .8 1.1 1.3c.3 .6 .4 1.2 .4 2c0 .7-0.1 1.4-0.4 1.9c-0.3 .5-0.6 1-1.1 1.3c-0.5 .3-1 .4-1.6 .4c-0.6 0-1.2-0.2-1.6-0.5c-0.5-0.3-0.8-0.7-0.9-1.3l.1-0.1v4.8Zm3.5-4c.6 0 1.1-0.2 1.4-0.7c.4-0.4 .6-1 .6-1.8c0-0.8-0.2-1.5-0.6-1.9c-0.3-0.5-0.8-0.7-1.4-0.7c-0.7 0-1.2 .2-1.5 .7c-0.4 .4-0.6 1-0.6 1.8c0 .9 .2 1.5 .6 1.9c.3 .5 .8 .7 1.5 .7Zm7.4 1.1c-1.2 0-2.2-0.3-2.9-0.9l.4-1c.4 .3 .8 .5 1.2 .6c.4 .2 .8 .2 1.3 .2c.5 0 .9-0.1 1.1-0.2c.3-0.2 .4-0.4 .4-0.7c0-0.3-0.1-0.5-0.2-0.6c-0.2-0.2-0.5-0.3-0.9-0.4l-1.2-0.3c-0.6-0.1-1.1-0.3-1.4-0.7c-0.3-0.3-0.5-0.7-0.5-1.2c0-0.4 .1-0.8 .4-1.1c.2-0.3 .5-0.6 .9-0.8c.5-0.1 .9-0.2 1.5-0.2c.5 0 1 .1 1.4 .2c.5 .2 .9 .4 1.2 .7l-0.4 1c-0.4-0.3-0.7-0.5-1.1-0.6c-0.4-0.2-0.7-0.2-1.1-0.2c-0.5 0-0.8 .1-1.1 .2c-0.2 .2-0.3 .4-0.3 .7c0 .3 0 .5 .2 .6c.1 .2 .4 .3 .8 .4l1.2 .3c.6 .1 1.1 .4 1.5 .7c.3 .3 .4 .7 .4 1.3c0 .6-0.2 1.1-0.7 1.4c-0.5 .4-1.2 .6-2.1 .6Zm4.3-1.8h1.6v1.7h-1.6Zm0-5.2h1.6v1.7h-1.6Zm4 7.7h-1.2l3.6-11.3h1.3Zm3.4 0h-1.2l3.6-11.3h1.2Zm5.6-0.8l-2.7-7.1h1.5l2.1 5.9h-0.3l2.1-5.9h1.1l2.1 5.9h-0.3l2.1-5.9h1.4l-2.7 7.1h-1.3l-2.3-6h.7l-2.2 6Zm12.2 0l-2.7-7.1h1.5l2.1 5.9h-0.4l2.1-5.9h1.2l2.1 5.9h-0.4l2.1-5.9h1.4l-2.7 7.1h-1.3l-2.2-6h.7l-2.2 6Zm12.1 0l-2.6-7.1h1.4l2.1 5.9h-0.3l2.1-5.9h1.1l2.1 5.9h-0.3l2.1-5.9h1.4l-2.7 7.1h-1.3l-2.3-6h.8l-2.3 6Zm9.6-1.7h1.6v1.7h-1.6Zm2.6 4.9l-0.3-1.1c.4-0.1 .8-0.2 1.1-0.4c.2-0.1 .5-0.3 .7-0.5c.2-0.2 .4-0.4 .5-0.8l.5-1.1l.3-0.4l2.4-6h1.5l-3.3 7.7c-0.3 .6-0.6 1-0.9 1.4c-0.4 .3-0.7 .6-1.2 .8c-0.4 .2-0.8 .3-1.3 .4Zm2.5-2.8l-3.2-7.5h1.5l2.4 6Zm8.1-0.3c-0.7 0-1.3-0.2-1.8-0.4c-0.5-0.3-0.9-0.8-1.2-1.3c-0.3-0.6-0.4-1.2-0.4-2c0-0.7 .1-1.4 .4-1.9c.3-0.6 .7-1 1.2-1.3c.5-0.3 1.1-0.4 1.8-0.4c.7 0 1.3 .1 1.8 .4c.5 .3 .9 .7 1.2 1.3c.3 .5 .5 1.2 .5 1.9c0 .8-0.2 1.4-0.5 2c-0.3 .5-0.7 1-1.2 1.3c-0.5 .2-1.1 .4-1.8 .4Zm0-1.1c.6 0 1.1-0.2 1.5-0.7c.3-0.4 .5-1 .5-1.9c0-0.8-0.2-1.4-0.5-1.8c-0.4-0.5-0.9-0.7-1.5-0.7c-0.6 0-1.1 .2-1.5 .7c-0.3 .4-0.5 1-0.5 1.8c0 .9 .2 1.5 .5 1.9c.4 .5 .9 .7 1.5 .7Zm7.5 1.1c-0.9 0-1.5-0.2-1.9-0.7c-0.5-0.5-0.7-1.2-0.7-2.1v-4.4h1.4v4.4c0 .5 .1 1 .4 1.2c.2 .3 .6 .5 1.1 .5c.6 0 1-0.2 1.4-0.6c.3-0.4 .5-0.9 .5-1.5v-4h1.4v7.1h-1.4v-1.5l.2-0.1c-0.2 .6-0.5 1-0.9 1.3c-0.5 .3-1 .4-1.5 .4Zm4.6-6.1v-1.1h4.7v1.1Zm4.7 4.8v1.1c-0.2 .1-0.3 .1-0.5 .2c-0.2 0-0.4 0-0.6 0c-0.7 0-1.2-0.2-1.6-0.6c-0.4-0.4-0.6-1-0.6-1.8v-6.5l1.4-0.5v6.9c0 .3 0 .6 .1 .8c.1 .2 .3 .3 .4 .4c.2 .1 .4 .1 .7 .1c.1 0 .2 0 .3 0c.1 0 .3-0.1 .4-0.1Zm3.6 1.3c-0.8 0-1.5-0.2-1.9-0.7c-0.4-0.5-0.6-1.2-0.6-2.1v-4.4h1.4v4.4c0 .5 .1 1 .3 1.2c.3 .3 .6 .5 1.1 .5c.6 0 1.1-0.2 1.4-0.6c.4-0.4 .5-0.9 .5-1.5v-4h1.5v7.1h-1.4v-1.5l.2-0.1c-0.2 .6-0.6 1-1 1.3c-0.4 .3-0.9 .4-1.5 .4Zm5.4-1.8h1.7v1.7h-1.7Zm3.4 1.7v-10.3h1.4v5l-0.1-0.2c.1-0.5 .4-1 .9-1.3c.4-0.3 .9-0.4 1.5-0.4c.7 0 1.2 .1 1.7 .4c.4 .3 .8 .7 1.1 1.3c.2 .5 .4 1.2 .4 1.9c0 .7-0.2 1.4-0.4 2c-0.3 .5-0.7 .9-1.1 1.2c-0.5 .3-1 .5-1.7 .5c-0.6 0-1.1-0.2-1.5-0.5c-0.5-0.3-0.8-0.7-0.9-1.3l.1-0.1v1.8Zm3.4-1c.7 0 1.2-0.2 1.5-0.7c.4-0.4 .5-1.1 .5-1.9c0-0.8-0.1-1.4-0.5-1.8c-0.3-0.5-0.8-0.7-1.5-0.7c-0.6 0-1.1 .2-1.5 .7c-0.3 .4-0.5 1-0.5 1.8c0 .9 .2 1.5 .5 1.9c.4 .5 .9 .7 1.5 .7Zm10.9 .2c-0.3 .3-0.7 .5-1.2 .7c-0.5 .1-1 .2-1.5 .2c-0.7 0-1.4-0.1-1.9-0.4c-0.6-0.3-1-0.7-1.3-1.3c-0.3-0.5-0.4-1.2-0.4-2c0-0.7 .1-1.3 .4-1.9c.3-0.5 .7-1 1.2-1.3c.5-0.3 1.1-0.4 1.7-0.4c.7 0 1.2 .1 1.7 .4c.4 .3 .8 .7 1 1.2c.3 .5 .4 1.1 .4 1.9v.2h-5.2v-0.8h4.4l-0.4 .5c0-0.8-0.2-1.4-0.5-1.8c-0.3-0.4-0.7-0.6-1.3-0.6c-0.6 0-1.1 .2-1.5 .7c-0.3 .4-0.5 1.1-0.5 1.8c0 .9 .2 1.6 .5 2c.4 .5 1 .7 1.7 .7c.4 0 .8-0.1 1.2-0.2c.4-0.1 .7-0.3 1.1-0.6Zm1.6 1.6h-1.2l3.6-11.3h1.3Zm7.2-0.8v-8.8h-3.4v-1.2h8.3v1.2h-3.4v8.8Zm8.6 0v-4.5l.3 1l-4.2-6.5h1.6l3.3 5.1h-0.5l3.3-5.1h1.7l-4.3 6.5l.3-1v4.5Zm6.1 0v-10h4.1c1.1 0 1.9 .3 2.5 .8c.6 .4 .9 1.1 .9 2c0 .9-0.3 1.6-0.9 2.1c-0.6 .5-1.4 .8-2.5 .8l1.1-0.2c.3 0 .6 .1 .9 .3c.3 .2 .5 .5 .6 .9l1.3 3.3h-1.5l-1.3-3.3c-0.1-0.4-0.3-0.6-0.6-0.8c-0.3-0.1-0.6-0.2-1-0.2h-2.2v4.3Zm1.4-5.4h2.5c.8 0 1.3-0.2 1.7-0.4c.3-0.3 .5-0.8 .5-1.3c0-0.6-0.2-1-0.5-1.3c-0.4-0.3-0.9-0.4-1.7-0.4h-2.5Zm7.3 6.3v-0.9h6.8v.9Zm9.9-0.9h-1.5l4.8-9.3l.1 .5h-5.5v-1.2h6.7v1.1Zm11 .1c-1 0-1.8-0.2-2.5-0.6c-0.7-0.4-1.3-1-1.6-1.8c-0.4-0.7-0.6-1.7-0.6-2.7c0-1 .2-1.9 .6-2.7c.3-0.8 .9-1.4 1.6-1.8c.7-0.4 1.5-0.6 2.5-0.6c.7 0 1.3 .1 1.9 .3c.6 .2 1.1 .5 1.5 .9l-0.5 1.1c-0.5-0.4-1-0.6-1.4-0.8c-0.5-0.2-1-0.3-1.5-0.3c-1 0-1.8 .4-2.4 1c-0.5 .7-0.8 1.7-0.8 2.9c0 1.3 .3 2.2 .8 2.9c.6 .7 1.4 1 2.4 1c.5 0 1-0.1 1.5-0.3c.4-0.1 .9-0.4 1.4-0.8l.5 1.1c-0.4 .4-0.9 .7-1.5 .9c-0.6 .2-1.2 .3-1.9 .3Zm10.8-0.9c-0.3 .3-0.7 .5-1.2 .7c-0.5 .1-1 .2-1.5 .2c-0.7 0-1.4-0.1-1.9-0.4c-0.5-0.3-1-0.7-1.3-1.3c-0.2-0.5-0.4-1.2-0.4-2c0-0.7 .2-1.3 .4-1.9c.3-0.5 .7-1 1.2-1.3c.5-0.3 1.1-0.4 1.8-0.4c.6 0 1.2 .1 1.6 .4c.5 .3 .8 .7 1.1 1.2c.2 .5 .3 1.1 .3 1.9v.2h-5.2l.1-0.8h4.3l-0.4 .5c0-0.8-0.1-1.4-0.4-1.8c-0.4-0.4-0.8-0.6-1.4-0.6c-0.6 0-1.1 .2-1.5 .7c-0.3 .4-0.5 1.1-0.5 1.8c0 .9 .2 1.6 .6 2c.4 .5 .9 .7 1.7 .7c.4 0 .7-0.1 1.1-0.2c.4-0.1 .7-0.3 1.1-0.6Zm6.1 .9c-0.9 0-1.7-0.2-2.4-0.6c-0.7-0.4-1.2-1-1.6-1.8c-0.4-0.7-0.6-1.6-0.6-2.7c0-1 .2-1.9 .6-2.7c.4-0.8 .9-1.4 1.6-1.8c.7-0.4 1.5-0.6 2.4-0.6c1 0 1.8 .2 2.5 .6c.7 .4 1.2 1 1.6 1.8c.4 .8 .6 1.7 .6 2.7c0 1.1-0.2 2-0.6 2.7c-0.4 .8-0.9 1.4-1.6 1.8c-0.7 .4-1.5 .6-2.5 .6Zm0-1.2c1 0 1.8-0.3 2.4-1c.5-0.7 .8-1.6 .8-2.9c0-1.3-0.3-2.2-0.8-2.9c-0.6-0.7-1.4-1-2.4-1c-1 0-1.7 .3-2.3 1c-0.5 .7-0.8 1.6-0.8 2.9c0 1.3 .3 2.2 .8 2.9c.6 .7 1.3 1 2.3 1Zm9.1 1.2c-0.6 0-1.1-0.1-1.6-0.4c-0.5-0.3-0.8-0.8-1.1-1.3c-0.3-0.5-0.4-1.2-0.4-1.9c0-0.8 .1-1.4 .4-2c.3-0.5 .6-1 1.1-1.3c.5-0.3 1-0.4 1.6-0.4c.7 0 1.2 .1 1.6 .4c.5 .3 .8 .8 .9 1.3l-0.1 .1v-1.7h1.4v7.1h-1.4v-1.7h.1c-0.1 .6-0.4 1-0.9 1.3c-0.4 .3-0.9 .5-1.6 .5Zm.4-1.1c.6 0 1.1-0.2 1.5-0.7c.3-0.4 .5-1 .5-1.9c0-0.8-0.2-1.4-0.5-1.8c-0.4-0.5-0.9-0.7-1.5-0.7c-0.7 0-1.2 .2-1.5 .7c-0.4 .4-0.6 1.1-0.6 1.9c0 .8 .2 1.4 .6 1.8c.3 .5 .8 .7 1.5 .7Zm7.2 1h-1.5l4.9-9.3v.5h-5.5v-1.2h6.8v1.1Zm8.4 0h-1.5l4.8-9.3l.1 .5h-5.5v-1.2h6.7v1.1Z"/><path fill="#065fd4" d="M452.5 199l-5.1-5.1l4.9-4.9h2.2l-5.4 5.4l.1-1l5.5 5.6Zm-6.5 0v-10h1.8v10Zm12.9 .1c-0.9 0-1.8-0.2-2.5-0.6c-0.7-0.4-1.3-1-1.6-1.8c-0.4-0.7-0.6-1.6-0.6-2.7c0-1 .2-1.9 .6-2.7c.3-0.8 .9-1.4 1.6-1.8c.7-0.4 1.6-0.6 2.5-0.6c1 0 1.8 .2 2.6 .6c.7 .4 1.2 1 1.6 1.8c.4 .8 .6 1.7 .6 2.7c0 1.1-0.2 2-0.6 2.7c-0.4 .8-0.9 1.4-1.7 1.8c-0.7 .4-1.5 .6-2.5 .6Zm0-1.4c.9 0 1.7-0.3 2.2-1c.5-0.6 .8-1.5 .8-2.7c0-1.2-0.3-2.1-0.8-2.7c-0.5-0.6-1.3-1-2.2-1c-0.9 0-1.6 .4-2.1 1c-0.5 .6-0.8 1.5-0.8 2.7c0 1.2 .3 2.1 .8 2.7c.5 .7 1.2 1 2.1 1Zm6.4 1.3v-10h4.3c1.1 0 1.9 .3 2.5 .8c.6 .5 .9 1.2 .9 2.1c0 .9-0.3 1.6-0.9 2.1c-0.6 .6-1.4 .8-2.5 .8h-2.5v4.2Zm1.8-5.6h2.3c.6 0 1.1-0.1 1.4-0.3c.3-0.3 .5-0.7 .5-1.2c0-0.4-0.2-0.8-0.5-1.1c-0.3-0.2-0.7-0.4-1.4-0.4h-2.3Zm7.3 5.6v-10h1.8v10Zm7.7 .1c-1.3 0-2.4-0.3-3.1-1c-0.7-0.7-1-1.8-1-3.1v-6h1.7v6.1c0 .8 .2 1.5 .6 1.9c.4 .5 1 .7 1.8 .7c.8 0 1.4-0.2 1.8-0.7c.4-0.4 .6-1.1 .6-1.9v-6.1h1.8v6c0 1.3-0.4 2.4-1.1 3.1c-0.7 .7-1.7 1-3.1 1Zm4.6 2.4v-1.5c.6 .1 1.1 .1 1.4 .1c.3-0.1 .5-0.2 .7-0.4c.1-0.3 .1-0.6 .1-1.1v-9.6h1.8v9.6c0 .8-0.1 1.5-0.3 1.9c-0.3 .5-0.7 .8-1.3 1c-0.6 .2-1.4 .2-2.4 0Z"/></g></svg>