<?xml version="1.0" encoding="UTF-8"?>
<svg width="50px" height="50px" viewBox="0 0 50 50" version="1.1" xmlns="http://www.w3.org/2000/svg" xmlns:xlink="http://www.w3.org/1999/xlink">
    <!-- Generator: Sketch 64 (93537) - https://sketch.com -->
    <title>Group 8 Copy</title>
    <desc>Created with Sketch.</desc>
    <g id="Page-1" stroke="none" stroke-width="1" fill="none" fill-rule="evenodd">
        <g id="Group-8-Copy">
            <rect id="Rectangle-Copy-31" fill="#FF19B7" x="0" y="0" width="50" height="50" rx="6"></rect>
            <g id="Group-6-Copy-9" transform="translate(24.500000, 25.000000) rotate(-90.000000) translate(-24.500000, -25.000000) translate(16.000000, 14.000000)" fill="#FFFFFF">
                <path d="M10.8222222,3 L11.21762,3.00558474 C12.7808021,3.05026262 14.1230769,3.36300778 15.2444444,3.94382022 C16.4592593,4.57303371 17.3888889,5.48314607 18.0333333,6.6741573 C18.6777778,7.86516854 19,9.29962547 19,10.9775281 C19,12.670412 18.6777778,14.1161049 18.0333333,15.3146067 C17.3888889,16.5131086 16.4555556,17.4269663 15.2333333,18.0561798 C14.0111111,18.6853933 12.5407407,19 10.8222222,19 L10.8222222,19 L5,19 L5,3 L10.8222222,3 Z M2,13 L2,17 L-2,17 L-2,13 L2,13 Z M10.6444444,5.35955056 L7.86666667,5.35955056 L7.86666667,16.6404494 L10.6444444,16.6404494 C12.4666667,16.6404494 13.8333333,16.1685393 14.7444444,15.2247191 C15.6555556,14.2808989 16.1111111,12.8651685 16.1111111,10.9775281 C16.1111111,7.23220974 14.2888889,5.35955056 10.6444444,5.35955056 L10.6444444,5.35955056 Z M2,5 L2,9 L-2,9 L-2,5 L2,5 Z" id="Combined-Shape" transform="translate(8.500000, 11.000000) rotate(-270.000000) translate(-8.500000, -11.000000) "></path>
            </g>
        </g>
    </g>
</svg>