<svg width="65" height="65" viewBox="0 0 65 65" fill="none" xmlns="http://www.w3.org/2000/svg">
<path d="M0 32.5C0 14.5507 14.5507 0 32.5 0V0C50.4493 0 65 14.5507 65 32.5V32.5C65 50.4493 50.4493 65 32.5 65V65C14.5507 65 0 50.4493 0 32.5V32.5Z" fill="#FF19B7"/>
<path fill-rule="evenodd" clip-rule="evenodd" d="M49.7911 27.9999L32.0335 14L12 29.7941L14.1363 32.5038L32.0335 18.3938L47.6549 30.7096L49.7911 27.9999ZM30.7882 41.3292C33.6111 41.3292 35.8995 39.0408 35.8995 36.2179C35.8995 33.3951 33.6111 31.1067 30.7882 31.1067C27.9654 31.1067 25.677 33.3951 25.677 36.2179C25.677 39.0408 27.9654 41.3292 30.7882 41.3292ZM30.7882 44.7367C32.4523 44.7367 34.005 44.2595 35.3168 43.4346L39.7933 47.9111L42.1669 45.5376L37.7533 41.124C38.7321 39.737 39.307 38.0446 39.307 36.2179C39.307 31.5132 35.493 27.6992 30.7882 27.6992C26.0835 27.6992 22.2695 31.5132 22.2695 36.2179C22.2695 40.9227 26.0835 44.7367 30.7882 44.7367Z" fill="white"/>
</svg>
