<svg width="129" height="65" viewBox="0 0 129 65" fill="none" xmlns="http://www.w3.org/2000/svg">
<path fill-rule="evenodd" clip-rule="evenodd" d="M32.5 0C14.5507 0 0 14.5507 0 32.5C0 50.4493 14.5508 65 32.5 65H96.087C114.036 65 128.587 50.4493 128.587 32.5C128.587 14.5507 114.036 0 96.0869 0H32.5ZM67.0235 43.0289V39.7919H71.1696V29.3537H67.2417V26.1168H75.3158V39.7919H79.0983V43.0289H67.0235ZM73.0609 23.3163C72.3577 23.3163 71.7516 23.0738 71.2424 22.5889C70.7332 22.104 70.4786 21.5221 70.4786 20.8432C70.4786 20.1158 70.7211 19.5217 71.206 19.061C71.6909 18.6003 72.3092 18.37 73.0609 18.37C73.7398 18.37 74.3338 18.6125 74.843 19.0974C75.3764 19.5823 75.6432 20.1642 75.6432 20.8432C75.6432 21.5221 75.3764 22.104 74.843 22.5889C74.3338 23.0738 73.7398 23.3163 73.0609 23.3163ZM29.9987 20.3703V43.0289H33.6721V32.4816H42.1463V29.1719H33.6721V23.68H44.1103V20.3703H29.9987ZM48.0747 39.7919V43.0289H61.7134V39.7919H56.9853V20.8977H48.2929V24.1346H52.8391V39.7919H48.0747ZM96.701 33.9357C96.701 36.9487 94.2585 39.3912 91.2455 39.3912C88.2325 39.3912 85.79 36.9487 85.79 33.9357C85.79 30.9227 88.2325 28.4802 91.2455 28.4802C94.2585 28.4802 96.701 30.9227 96.701 33.9357ZM96.0796 41.6382C94.6793 42.5188 93.0219 43.0282 91.2455 43.0282C86.2239 43.0282 82.153 38.9574 82.153 33.9357C82.153 28.9141 86.2239 24.8432 91.2455 24.8432C96.2672 24.8432 100.338 28.9141 100.338 33.9357C100.338 35.8852 99.7245 37.6914 98.68 39.1718L103.391 43.8825L100.857 46.4159L96.0796 41.6382Z" fill="#FF19B7"/>
</svg>
